<svg xmlns="http://www.w3.org/2000/svg" id="Calque_2" data-name="Calque 2" viewBox="0 0 442.75 407.06"><defs><linearGradient id="Dégradé_sans_nom" x1="80.05" x2="220.95" y1="-613.14" y2="-613.14" data-name="Dégradé sans nom" gradientTransform="translate(0 673.89)" gradientUnits="userSpaceOnUse"><stop offset="0" stop-color="#455941"/><stop offset=".31" stop-color="#455941"/><stop offset="1" stop-color="#55ae3c"/></linearGradient><style>.cls-12{fill:#455941}.cls-14{fill:#559742}.cls-15{fill:#55ae3c}.cls-16{fill:#4a6f44}.cls-17{fill:#4e8144}</style></defs><g id="Calque_2-2" data-name="Calque 2"><g id="Calque_1-2" data-name="Calque 1-2"><path d="M158.25 96.9c-.5 3.3.3 6.6 2.3 9.3s4.9 4.5 8.2 5 6.6-.3 9.3-2.3 4.5-4.9 5-8.2c1.1-6.8-3.6-13.2-10.4-14.3-.7-.1-1.3-.2-1.9-.2-6.2.1-11.5 4.5-12.5 10.7" style="fill:#fdea14"/><path d="M205.85 50.5c1.3 1.2 11.7 6.1 19.8 8.9 9.7 3.3 18.5 5 22.7 1.2 0 0-9.3-2.7-20.5-7-9.4-3.6-13.6-6.7-17.6-6.1-3.3.4-5.9 1.6-4.4 3" class="cls-14"/><path d="M216.55 43.9c1.4.7 11.9 3.2 19.4 3.8 9 .8 20.2.7 21.9-4 0 0-10.5-.5-21-1.8-8.8-1.1-12.3-2.2-16.2-1.3-2.9.8-5.7 2.5-4.1 3.3m-5.6-8.6c.1-1.6 1.5-11.2 4.7-18.6 3.5-8.2 8.2-13.6 10.7-15.5 1-.8 2.1-1.4 2.1.2-.1 2-3 7.5-6 15.9-3.4 9.2-4.2 14.5-6.9 17.1-2.1 1.9-4.8 2.8-4.6.9" class="cls-15"/><path d="M156.15 68c-.8-1.6-4.1-14.7-4.6-23.3-.6-9.8 1.4-15.2 6.5-18.8.3-.2.7 0 .8.3.3 2.4.2 10.5 1.2 20.5s3.7 16 1.8 18.7c-1.9 2.4-4.7 4.5-5.7 2.6" class="cls-12"/><path d="M185.95 50.5c-.6-1.6-2.6-15-2.2-23.6.4-9.8 2.9-15.1 8.4-18.3.3-.2.7 0 .7.3 0 2.4-.9 10.6-.9 20.6-.1 10.1 2 16.3-.1 18.8-2.1 2.3-5.2 4.1-5.9 2.2" class="cls-17"/><path d="M224.95 33.8c3.3.8 11.9-7.2 17.6-11.9s10-9.7 10.5-13.4c.4-3.1-.8-1.1-1.5-.5-2.8 2.3-9.1 7.4-15.2 12.2-6.8 5.3-11.4 7.6-12.2 10.2-.8 2.1-.8 3 .8 3.4" class="cls-15"/><path d="M198.95 42c-.4-1.6-.4-11.1.2-19.2.9-10.8 5.5-20.5 10.8-22.8 0 0-1.6 10.4-3 21.9-1.1 9.7-.8 17.1-2.7 18.9-2.2 2-4.9 3.2-5.3 1.2" class="cls-14"/><path d="M172.75 58.7c-1.3-1.4-3.2-10.9-4.2-19.5-1.4-11.5.7-21.7 6.2-25.2 0 0 .2 13.9 1.6 24.4 1.4 10.3 3 16 1.4 18.1-2 2.8-3.5 3.9-5 2.2" class="cls-16"/><path d="M216.85 36.8c-12.3 7.9-24.7 15.6-37.3 23-2.6 1.5-5.3 3.1-8 4.5-5.3 2.9-10.7 5.6-16.3 7.9-12.6 5.3-25.8 9.2-39.5 11.6-14.1 2.4-26.2 1.7-35.7-.8 0 0 7.3 4.1 19.6 4.2s33.9-3.4 60-14.6 61.3-38.3 61.3-38.3-2.4 1.5-4.1 2.5" style="fill:url(#Dégradé_sans_nom)"/><path d="M201.45 97.2c-.6-.1-1.2-.1-1.8-.1-2.5 0-4.9.8-6.9 2.3-2.5 1.8-4.2 4.6-4.7 7.7-1 6.4 3.4 12.4 9.8 13.4s12.4-3.4 13.4-9.8c1-6.5-3.3-12.5-9.8-13.5" style="fill:#fde90c"/><path d="M253.35 93c-.4 2.8.2 5.7 2 8s4.2 3.8 7.1 4.3c5.9.9 11.4-3.1 12.3-9 .4-2.8-.2-5.7-2-8s-4.2-3.8-7.1-4.3c-.6-.1-1.1-.1-1.7-.1-2.3 0-4.5.7-6.4 2.1-2.3 1.6-3.8 4.1-4.2 7" style="fill:#ffdc04"/><path d="M247.35 68.2c-.6-.1-1.2-.1-1.7-.1-2.3 0-4.6.7-6.5 2.2-2.4 1.8-4 4.3-4.4 7.3s.3 5.9 2 8.3c1.8 2.4 4.3 4 7.3 4.4 3 .5 5.9-.3 8.3-2 2.4-1.8 4-4.3 4.4-7.3s-.3-5.9-2-8.3c-1.9-2.5-4.5-4.1-7.4-4.5" style="fill:#ffdf05"/><path d="M200.45 79.4c-1 6.2 3.3 12.1 9.5 13.1 3 .5 6-.3 8.5-2.1s4.1-4.4 4.5-7.5-.3-6-2.1-8.5-4.5-4.1-7.5-4.6c-.6-.1-1.2-.1-1.8-.1-5.4.1-10.3 4.1-11.1 9.7" style="fill:#ffe504"/><path d="M202.45 91.8c-32.7 1.5-75.1-4-75.1-4s-1.6.5-4.6 1.2-6.3 1.2-6.3 1.2c24.1 3.7 49 5.5 87.4 3.6.5 0 1-.1 1.5-.1-1-.4-2-1.1-2.9-1.9" style="fill:#634f3f"/><path d="M198.35 85.5c-4.1-1.4-9.4-3.3-14.6-5.8-9-4.2-13.4-8-17.8-7-4.5 1-4.3 1.9-3 3.1 1.4 1.3 10.7 6.5 18.3 10 8 3.6 14.4 5.1 19.6 4.3-1.1-1.4-2-3-2.5-4.6" class="cls-12"/><path d="M197.75 79c.4-2.3 1.3-4.4 2.6-6.2-8.2-4.5-14.2-8.8-18.1-7.9-3.2.7-4.7 1.5-3.4 3 1.2 1.3 9 6.1 16.2 10.2.9.5 1.7.9 2.6 1.4.1-.2.1-.3.1-.5" class="cls-16"/><path d="M234.55 70.3c-2.8-.8-12.1-3.3-21.1-7.3-9.1-4-14.9-8.1-18.1-7-3.1 1-4.8 1.9-3.3 3.4 1 1 8.4 5.2 15.3 8.4 2-.7 4.3-.9 6.6-.6 3.7.6 6.9 2.5 9.1 5.5 5 .6 9.4.1 11.8-1.7.3-.1.2-.6-.3-.7" class="cls-17"/><path d="M280.85 88.3c-.7 4.5 2.4 8.8 7 9.5 2.2.3 4.4-.2 6.2-1.5s3-3.2 3.3-5.4-.2-4.4-1.5-6.2-3.2-3-5.5-3.3c-.4-.1-.9-.1-1.3-.1-1.8 0-3.5.6-4.9 1.6-1.8 1.2-3 3.2-3.3 5.4" style="fill:#ffd201"/><path d="M232.85 88.7c-.7-.1-1.4-.2-2-.2-2.7 0-5.4.9-7.7 2.5-2.8 2.1-4.6 5.1-5.2 8.5-1.1 7.1 3.8 13.8 10.9 14.9 3.4.5 6.9-.3 9.7-2.4s4.7-5.1 5.2-8.5-.3-6.9-2.4-9.7c-2-2.7-5-4.6-8.5-5.1" style="fill:#fde104"/><path d="M260.45 66.8c-.4 2.4.2 4.7 1.6 6.6s3.5 3.2 5.8 3.6c2.4.4 4.7-.2 6.6-1.6s3.2-3.5 3.6-5.8c.4-2.4-.2-4.7-1.6-6.6s-3.5-3.2-5.8-3.6c-.5-.1-.9-.1-1.4-.1-1.9 0-3.7.6-5.2 1.7-1.9 1.3-3.2 3.4-3.6 5.8" style="fill:#ffd800"/><path d="M285.85 60.9c-1.2-1.6-2.9-2.7-4.9-3-.4-.1-.8-.1-1.2-.1q-1.95 0-3.6.9c.9.7 1.8 1.5 2.5 2.5 1.8 2.5 2.6 5.6 2.1 8.7-.2 1-.5 2-.9 2.9 1.5 0 3-.5 4.2-1.4 1.6-1.2 2.7-2.9 3-4.9s0-4-1.2-5.6" style="fill:#ffd500"/><path d="M290.25 61.8c-.3 2 .2 3.9 1.3 5.5s2.9 2.7 4.9 3c4.1.6 7.9-2.2 8.5-6.2s-2.2-7.9-6.2-8.5c-.4-.1-.8-.1-1.2-.1-1.6 0-3.1.5-4.4 1.4-1.6 1.2-2.7 2.9-2.9 4.9" style="fill:#ffcf00"/><path d="M303.35 78.2c-.6 3.7 2 7.2 5.7 7.8 1.8.3 3.6-.2 5.1-1.2s2.4-2.7 2.7-4.5-.2-3.6-1.2-5.1-2.7-2.4-4.5-2.7c-.4-.1-.7-.1-1-.1-3.4 0-6.3 2.4-6.8 5.8" style="fill:#ffcb03"/><path d="M1.35 322.5h440.9v1.5H1.35zm32.1-108.8c10.1 0 14.3-4.9 14.3-11.6 0-5.8-4.3-11.7-14.2-11.7h-17.4v23.4h17.3zm-17.4-34.2h13.2c4.9 0 6.8-3.3 6.8-6.2 0-3.5-2.9-6.2-8-6.2h-12zm27.7 1.4c11.4 1.5 19.4 11.3 19.4 22.6 0 11.9-7.5 22.8-21.7 22.8H1.85v-71.9h31.6c8.6 0 15.6 7 15.6 15.9 0 4.1-1.9 8.6-5.3 10.6m89 9.5c0-12.6-10.5-23.1-23.4-23.1s-23.3 10.4-23.3 23.1 10.4 23.1 23.3 23.1 23.4-10.3 23.4-23.1m14.9 0c0 20.3-17 36.7-38.3 36.7s-38.2-16.4-38.2-36.7 17.1-36.7 38.2-36.7 38.3 16.4 38.3 36.7m26.7 5.4h12.9c11.6 0 17.1-5.9 17.1-14.4 0-7.4-3.9-14.4-15.2-14.4h-14.8zm16.1 12c-.8.1-1.8.1-2.8.1h-13.4v18.5h-14.6v-71.9h31.7c21 0 28.2 12.4 28.2 25.9 0 12.3-5.1 20.5-14.6 24.6l16.7 21.4h-17.4zm114.9-53.4v71.9h-14.7v-39.8l-22.2 31.3-22.4-31.3v39.8h-14.6v-71.9h7.2l29.8 41.2 29.7-41.2zm70.1 59.3v12.6h-55.2v-71.9h53v12.7h-38.8v18.2h32.5v12.3h-32.5v16.1zm66.1-8.5c0 13.9-11.1 22-27.9 22-12.2 0-18.5-1.1-29.9-6.8l5.3-11.3c9.5 4.6 16.1 5.5 25.1 5.5 7.9 0 12.5-2.9 12.5-8.2 0-4.9-4.8-7-15.3-9.5-14.8-3.4-26.7-7.6-26.7-21.7 0-12.6 10.1-21.6 26.5-21.6 10.9 0 20.5 2.8 27.5 5.8l-5.9 11.6c-6.3-2.6-15.2-4.8-21.9-4.8-7.3 0-11.4 3.3-11.4 7.8 0 5.1 5.1 7.2 15.9 9.7 15.6 3.4 26.2 8.3 26.2 21.5m-306.3 39.3v53.2h-10.8v-29.5l-16.5 23.1-16.5-23.1v29.5h-10.8v-53.2h5.3l22 30.5 22-30.5zm11.3 0h10.9v53.2h-10.9zm76.6 0v53.2h-10.8v-29.5l-16.5 23.1-16.5-23.1v29.5h-10.8v-53.2h5.3l22 30.5 22.1-30.5zm54.4 26.6c0-9.4-7.8-17.1-17.3-17.1s-17.2 7.7-17.2 17.1 7.7 17.1 17.2 17.1 17.3-7.7 17.3-17.1m11.1 0c0 15-12.6 27.2-28.3 27.2s-28.3-12.1-28.3-27.2 12.7-27.2 28.3-27.2 28.3 12.2 28.3 27.2m48.8 10.9c0 10.3-8.2 16.3-20.6 16.3-9.1 0-13.7-.8-22.1-5.1l3.9-8.4c7 3.4 11.9 4.1 18.6 4.1 5.8 0 9.3-2.1 9.3-6 0-3.6-3.5-5.2-11.3-7-11-2.5-19.8-5.6-19.8-16.1 0-9.4 7.5-16 19.6-16 8.1 0 15.2 2 20.4 4.3l-4.4 8.6c-4.7-2-11.2-3.6-16.2-3.6-5.4 0-8.5 2.4-8.5 5.7 0 3.8 3.8 5.4 11.8 7.2 11.4 2.7 19.3 6.3 19.3 16m22.8-4.1h16.1l-8.1-17.6zm19.9 9h-23.8l-4.8 10.8h-11.4l25.4-53.2h5.4l25.4 53.2h-11.4zm62.1-4.9c0 10.3-8.2 16.3-20.6 16.3-9.1 0-13.7-.8-22.1-5.1l3.9-8.4c7 3.4 11.9 4.1 18.6 4.1 5.8 0 9.3-2.1 9.3-6 0-3.6-3.5-5.2-11.3-7-11-2.5-19.8-5.6-19.8-16.1 0-9.4 7.5-16 19.6-16 8.1 0 15.2 2 20.4 4.3l-4.4 8.6c-4.7-2-11.2-3.6-16.2-3.6-5.4 0-8.5 2.4-8.5 5.7 0 3.8 3.8 5.4 11.8 7.2 11.5 2.7 19.3 6.3 19.3 16m-373.2-16.9c-.3-.9-1.4-1.2-3-.9-1.7.2-3.3.8-5 1.6s-3.1 1.8-4.3 3-2.1 2.6-2.7 4.2-.6 4 0 7.2.9 5.3 1 6.2c0 .9-.1 2-.4 3-.3 1.1-.8 2-1.5 2.8s-1.6 1.4-2.8 1.8c-1.2.5-2.2.2-3-.8s.7-3.4 4.6-7.4 3.5-3.8-1.1.4-6.8 7.1-6.5 8.6c.3 1.6 1 2.6 2.2 3.1s2.3.8 3.3.8 2.3-.2 3.8-.6 2.7-1 3.7-1.7c1-.8 1.9-2 2.8-3.8s1.1-3.8.8-6.2c-.4-2.4-.7-4-1-4.9s-.4-2.3-.2-4.5 1-4.1 2.4-5.7 2.6-2.5 3.8-2.5c1.2-.1 2.1-.6 2.8-1.4s.6-1.4.3-2.3Zm-22.2 17.7c1.1-1.4 2-2.6 2.8-3.6s.6-1-.4 0-2.1 2-3.3 3.1c-1.1 1.1-3.2 2.2-6.1 3.4q-4.35 1.8-6 2.1c-1.65.3-2.1.3-3.1.1q-1.5-.3-2.7-1.8c-1.2-1.5-1.2-2.1-1.2-3.3s.4-2.4 1.2-3.6c0-.1.2-.1.4-.1.2.1.5.1.9.2s.9.1 1.5.1 1.3-.2 2-.5c2.7-1.2 4.8-2.4 6.4-3.6s2.4-2.7 2.5-4.5c0-1.8-.2-3.2-.8-4.4-.6-1.1-2.3-1.6-5.1-1.4-2.4.5-4.5 1.4-6.3 2.8s-3.3 2.8-4.4 4.1c-1.1 1.4-2 3.1-2.9 5.2-.8 2.1-1.3 4-1.2 5.8v.3c-.6.4-1.2.7-1.8 1.1-5.3 3.3-8.5 5-9.8 5.4-1.3.3-2.2.1-2.7-.7s.1-4.3 1.7-10.6 4.3-13.1 8-20.4 5.5-11.4 5.4-12.1c-.1-.8-.7-1.4-1.8-1.9s-2.5.6-4.1 3.2c-1.7 2.6-3.3 5.5-4.9 8.7s-3.5 8.2-5.9 15-3.8 11.7-4.3 14.7-.5 5.1.2 6.2 1.3 2.1 2 2.9 1.8 1.1 3.2 1c1.5-.1 3.2-.7 5.2-1.8s3.6-2.4 5-3.8l4.1-4.1c.2-.2.5-.5.8-.7.1.7.3 1.3.5 1.8.5 1 1 1.9 1.7 2.6.7.8 1.5 1.4 2.3 1.9s2.1.9 3.7 1.1q2.55.3 5.1-.6c2.55-.9 3.1-1.3 4.1-2s2.4-1.8 4-3.2c1.6-1.3 3-2.7 4.1-4.1Zm-16.6-10.2c.6-1.5 3.1-2.9 3.1-2.9 2.3-1.1 3.4-1.4 3.7-.7s.5 1.2-.4 2.2c-1 1-3.4 2.4-4.8 3-1.6.7-2.2-.1-1.6-1.6Z" style="fill:#fff;stroke:#fff;stroke-miterlimit:10"/><path d="M3.1 356.54c0-6.7 4.5-11.5 11.8-11.5 6.9 0 11.9 4.3 11.9 11.5 0 6.7-4.5 11.5-11.9 11.5-6.9-.1-11.8-4.4-11.8-11.5Zm22.4 0c0-6-4-10.3-10.6-10.3-6.1 0-10.6 3.9-10.6 10.3 0 6 4 10.3 10.6 10.3 6.2 0 10.6-3.9 10.6-10.3Zm26.5-11.3v1.1H38.4v10.8h11.8v1.1H38.4v9.5h-1.2v-22.5zm24.7 0v1.1H63.1v10.8h11.8v1.1H63.1v9.5h-1.2v-22.5zm11.1 0v22.5h-1.2v-22.5zm10.6 11.1c0-7.1 4.5-11.3 11.6-11.3 4.2 0 7.5 1.7 9.6 4.2l-1 .8c-1.9-2.3-4.8-3.9-8.7-3.9-6.4 0-10.4 3.7-10.4 10.1s4 10.5 10.4 10.5c3.8 0 6.8-1.5 8.7-3.8l1 .8c-2.2 2.6-5.4 4.2-9.6 4.2-7.1.1-11.6-4.5-11.6-11.6Zm46.2-11.1v1.1H131v9.9h11.7v1.1H131v9.3h14.3v1.1h-15.5v-22.5zm31.1 0c6.7 0 10.8 3.8 10.8 11.2 0 7-3.6 11.3-10.6 11.3h-7.7v-22.5zm9.6 11.2c0-6.3-3.2-10-9.6-10h-6.3v20.2h6.4c5.8 0 9.4-3.5 9.5-10.2Zm26.5-11.2v1.1h-13.6v9.9h11.7v1.1h-11.7v9.3h14.3v1.1H197v-22.5zm22 1.1v-1.1h17.6v1.1h-8.2v21.4H242v-21.4zm24.7 10.2c0-6.7 4.5-11.5 11.8-11.5 6.9 0 11.8 4.3 11.8 11.5 0 6.7-4.5 11.5-11.8 11.5-6.9-.1-11.8-4.4-11.8-11.5Zm22.3 0c0-6-4-10.3-10.6-10.3-6.1 0-10.6 3.9-10.6 10.3 0 6 4 10.3 10.6 10.3 6.2 0 10.6-3.9 10.6-10.3Zm11.6 2.5v-13.8h1.2v13.7c0 5.2 2.4 7.9 7.6 7.9s7.7-2.6 7.7-7.9v-13.7h1.2v13.8c0 5.8-2.8 8.9-8.9 8.9s-8.8-3-8.8-8.9Zm38.9.8c-.6.1-1.1.1-1.8.1h-6.7v7.8h-1.2v-22.5h8.4c5.3 0 8 2.5 8 7.2 0 3.9-1.9 6.3-5.4 7.1l6 8.2h-1.5zm5.4-7.4c0-4-2.3-6.1-6.9-6.1h-7.1v12.5h6.7c4.7 0 7.3-2.2 7.3-6.4Zm13.1-7.2v22.5h-1.2v-22.5zm10.6 20.7.5-1.2c2.4 1.4 4.8 2 8.1 2 4.1 0 6.7-1.6 6.7-4.9 0-3.5-3.3-4.1-7.1-5-4.8-1-8-2.1-8-6.2 0-3.5 2.8-5.7 7.6-5.7 2.9 0 5.9.7 7.9 1.7l-.6 1c-1.8-1-4.6-1.6-7.3-1.6-4 0-6.4 1.9-6.4 4.5 0 3.1 2.8 4.1 7.1 5 4.2.9 8 1.8 8 6.1s-3.1 6.1-7.9 6.1c-3.6.2-6.1-.4-8.6-1.8Zm48.6 1.8h-1.2v-19.7l-9.4 15.3h-.6l-9.4-15.3v19.7h-1.2v-22.5h.8l10.1 16.5 10.1-16.5h.8zm26.6-22.5v1.1H422v9.9h11.6v1.1H422v9.3h14.3v1.1h-15.5v-22.5zm-334.9 56.9c-2.2 1.7-4.5 2.7-7.8 2.7-4.6 0-6.7-2.7-6.7-5.5 0-2.2 1.6-4.6 5.3-6.1-2.4-2.3-3.7-3.6-3.7-6 0-2.9 2.4-5.2 5.6-5.2s5.7 2 5.7 5.2c0 2.2-1.3 4.5-5.7 6.3l7.2 7c1.1-1.3 1.8-3.1 2-5.3h1c-.1 2-.6 4.2-2.2 6.1l2.9 2.8-.8.8zm-.8-.8-7.6-7.3c-2.9 1.2-4.9 2.9-4.9 5.3s2.1 4.4 5.5 4.4c2.8 0 4.8-.7 7-2.4Zm-7.3-8.6c3.5-1.5 5.3-3.1 5.3-5.4 0-2.5-1.8-4.2-4.6-4.2-2.6 0-4.4 1.9-4.4 4.1.1 2.1 1.3 3.2 3.7 5.5Zm41.5-10.5c6.7 0 10.8 3.8 10.8 11.2 0 7-3.6 11.3-10.6 11.3h-7.7v-22.5zm9.6 11.1c0-6.3-3.2-10-9.5-10h-6.3v20.2h6.4c5.8 0 9.4-3.5 9.4-10.2Zm26.6-11.1v1.1h-13.7v9.9h11.6v1.1h-11.6v9.3h14.3v1.1h-15.5v-22.5zm9.6 20.7.5-1.2c2.4 1.4 4.8 2 8.1 2 4.1 0 6.7-1.6 6.7-4.9 0-3.5-3.3-4.1-7.1-5-4.8-1-8-2.1-8-6.2 0-3.5 2.8-5.7 7.6-5.7 2.9 0 5.9.7 7.9 1.7l-.6 1c-1.8-1-4.6-1.6-7.3-1.6-4 0-6.4 1.9-6.4 4.5 0 3.1 2.8 4.1 7.1 5 4.2.9 8.1 1.8 8.1 6.1s-3.1 6.1-7.9 6.1c-3.6.2-6.1-.5-8.7-1.8Zm40.8-20.7v21.4h13.9v1.1h-15.1v-22.5zm21.4 11.2c0-6.7 4.5-11.5 11.8-11.5 6.9 0 11.8 4.3 11.8 11.5 0 6.7-4.5 11.5-11.8 11.5-6.9 0-11.8-4.3-11.8-11.5Zm22.4 0c0-6-4-10.3-10.6-10.3-6.1 0-10.6 3.9-10.6 10.3 0 6 4 10.3 10.6 10.3 6.1 0 10.6-3.9 10.6-10.3Zm13-11.2v22.5h-1.2v-22.5zm10.6 20.7.5-1.2c2.4 1.4 4.8 2 8.1 2 4.1 0 6.7-1.6 6.7-4.9 0-3.5-3.3-4.1-7.1-5-4.8-1-8-2.1-8-6.2 0-3.5 2.8-5.7 7.6-5.7 2.9 0 5.9.7 7.9 1.7l-.6 1c-1.8-1-4.6-1.6-7.3-1.6-4 0-6.4 1.9-6.4 4.5 0 3.1 2.8 4.1 7.1 5 4.2.9 8 1.8 8 6.1s-3.1 6.1-7.9 6.1c-3.6.2-6.1-.5-8.6-1.8Zm28-20.7v22.5h-1.2v-22.5zm21.6 14.6c-.6.1-1.1.1-1.8.1h-6.7v7.8H328v-22.5h8.4c5.3 0 8 2.5 8 7.2 0 3.9-1.9 6.3-5.4 7.1l6 8.2h-1.5zm5.4-7.5c0-4-2.3-6.1-6.9-6.1h-7.1v12.5h6.7c4.7 0 7.3-2.2 7.3-6.4Zm10.6 13.6.5-1.2c2.4 1.4 4.8 2 8.1 2 4.1 0 6.7-1.6 6.7-4.9 0-3.5-3.3-4.1-7.1-5-4.8-1-8-2.1-8-6.2 0-3.5 2.8-5.7 7.6-5.7 2.9 0 5.9.7 7.9 1.7l-.6 1c-1.8-1-4.6-1.6-7.3-1.6-4 0-6.4 1.9-6.4 4.5 0 3.1 2.8 4.1 7.1 5 4.2.9 8 1.8 8 6.1s-3.1 6.1-7.9 6.1c-3.5.2-6.1-.5-8.6-1.8Z" style="fill:#fff;stroke:#fff;stroke-miterlimit:10;stroke-width:3px"/></g></g></svg>