<?xml version="1.0" encoding="UTF-8" standalone="no"?>
<svg
	xmlns:dc="http://purl.org/dc/elements/1.1/"
	xmlns:cc="http://creativecommons.org/ns#"
	xmlns:rdf="http://www.w3.org/1999/02/22-rdf-syntax-ns#"
	xmlns:svg="http://www.w3.org/2000/svg"
	xmlns="http://www.w3.org/2000/svg"
	viewBox="0 0 377.94666 377.94666"
	height="377.94666"
	width="377.94666"
	xml:space="preserve"
	id="svg2"
	version="1.1"><metadata
     id="metadata8"><rdf:RDF><cc:Work
         rdf:about=""><dc:format>image/svg+xml</dc:format><dc:type
	rdf:resource="http://purl.org/dc/dcmitype/StillImage" /></cc:Work></rdf:RDF></metadata>
	<defs
		id="defs6" />
	<g
		transform="matrix(1.3333333,0,0,-1.3333333,0,377.94667)"
		id="g10"><g
       transform="scale(0.1)"
       id="g12"><path
         id="path14"
         style="fill:#fbc707;fill-opacity:1;fill-rule:nonzero;stroke:none"
         d="M 0,2834.61 H 2834.6 V 0 H 0 v 2834.61" /><path
		id="path16"
		style="fill:#231f20;fill-opacity:1;fill-rule:evenodd;stroke:none"
		d="m 2375.46,513.98 44.69,-75.8 h 52.11 l -46.02,75.8 h -50.78 z m -77.09,0 v -75.8 h 44 v 54.3 l 20.51,21.5 h -64.51 z m -259.94,0 v -75.8 h 46.36 v 66.121 h 29.07 l 36.66,-66.121 h 51.07 l -42.69,73.98 c 1.46,0.559 3.12,1.168 4.88,1.879 l -125.35,-0.059 z m -243.24,0 v -75.8 h 144.82 v 36.468 h -98.73 v 39.332 h -46.09 z m -197.7,0 c 1.21,-4.179 2.62,-8.968 4.28,-14.671 6.03,-20.207 11.52,-40.668 17.28,-61.129 h 47.66 l 19.2,75.8 h -41.06 c -1.25,-7.519 -2.57,-16.121 -4.31,-27.789 -1.9,11.809 -3.38,20.36 -4.85,27.789 h -38.2 z m -112.07,0 19.2,-75.8 h 47.66 l 17.81,62.441 c 1.5,5.117 2.81,9.539 3.96,13.418 l -37.24,-0.059 c -1.6,-7.64 -3.28,-16.421 -5.49,-28.32 -1.51,10.988 -2.76,19.692 -4.18,28.34 l -41.72,-0.02 z m -200.41,0 c 7.25,-1.25 14.59,-2.179 21.93,-3.128 13.62,-1.84 32.21,-4.204 32.21,-18.903 0,-12.847 -15.71,-21.5 -34.05,-21.5 -10.73,0 -23.3,2.36 -35.61,8.93 -9.16,4.98 -13.09,9.18 -17.81,14.422 L 1216.59,471.5 c 11.53,-13.379 32.21,-37.52 84.33,-37.52 25.92,0 52.63,5.508 69.4,24.93 9.68,11.281 14.66,25.969 14.66,39.352 0,5.59 -0.77,10.867 -2.28,15.75 l -97.69,-0.032 z m -280.23,0 v -75.8 h 46.08 v 74.769 h 88.26 v 1.031 h -134.34 z m -205.01,0 v -75.8 h 118.367 v 39.09 h -72.278 v 36.71 H 799.77 Z m -156.555,0 v -75.8 h 46.094 v 75.8 h -46.094 z m -156.297,0 v -75.8 h 46.352 v 75.8 h -46.352 z m -114.18,0 v -75.8 h 46.614 v 75.8 h -46.614 v 0" /><path
		id="path18"
		style="fill:#231f20;fill-opacity:1;fill-rule:evenodd;stroke:none"
		d="m 2124.07,588.762 c 9.69,-0.25 26.7,-1.043 26.7,-24.66 0,-24.661 -21.21,-25.18 -27.75,-25.454 h -38.23 v 50.114 h 39.28 z m 238.81,-74.782 7.77,8.149 4.81,-8.149 h 50.78 l -24.69,40.68 65.47,68.738 h -55.51 l -69.14,-75.558 v 75.558 h -44 V 513.98 h 64.51 z m -199.1,0 c 13.3,5.43 33.09,16.45 33.09,49.34 0,16.789 -6.02,31.481 -14.67,41.18 -17.01,18.371 -41.12,18.629 -60.49,18.898 h -83.28 V 513.98 h 125.35 z m -322.5,0 v 4.739 h 84.59 v 35.152 h -84.59 v 33.578 h 90.62 v 35.949 H 1795.19 V 513.98 h 46.09 z m -155.37,0 27.67,109.418 h -45.82 c -3.92,-18.628 -8.12,-37.519 -12.05,-56.41 -5.7,-25.777 -8.14,-36.886 -10.86,-53.019 l 41.06,0.011 z m -111.86,0 c 6.74,23.02 7.72,27.192 11.74,46.711 4.59,-21.632 5.72,-26.152 11.7,-46.75 l 38.2,0.039 c -3.02,15.168 -6.11,25.649 -12.97,49.59 -6.03,19.95 -11.52,39.891 -17.03,59.828 h -40.84 l -15.19,-57.199 c -6.56,-24.828 -9.51,-36.109 -12.85,-52.179 l 37.24,-0.04 z m -46.91,0 c -3.79,22.989 -8.85,45.579 -23.3,109.418 h -46.1 l 27.68,-109.418 h 41.72 z m -144.44,0 c -4.19,13.461 -14.11,23.891 -29.67,29.661 -10.48,3.679 -36.92,8.668 -56.57,11.019 -7.85,1.051 -23.56,3.149 -23.56,17.309 0,8.929 9.16,19.422 27.5,19.422 11.78,0 23.56,-4.469 30.11,-8.141 7.33,-4.199 12.57,-9.18 18.33,-14.949 l 34.05,24.398 c -15.98,14.43 -39.02,35.153 -81.71,35.153 -31.95,0 -74.37,-14.161 -74.37,-61.911 0,-39.871 38.49,-48.011 49.75,-50.371 2.8,-0.59 5.62,-1.121 8.45,-1.601 l 97.69,0.011 z m -243.58,0 v 34.911 h -88.26 v 38.828 h 95.85 v 35.679 H 1004.78 V 513.98 h 134.34 z m -293.261,0 V 623.648 H 799.77 V 513.98 h 46.089 z m -156.55,0 V 623.398 H 643.215 V 513.98 h 46.094 z m -269.957,0 v 3.168 h 67.566 v -3.168 h 46.352 v 109.418 h -46.352 v -66.91 h -67.566 v 66.91 H 372.738 V 513.98 h 46.614 v 0" /><path
		id="path20"
		style="fill:#231f20;fill-opacity:1;fill-rule:nonzero;stroke:none"
		d="m 737.008,2352.09 387.642,-0.16 -0.17,-475.64 594.28,1.54 v 252.06 l 0.31,-0.31 -0.31,222.2 c 0,0 375.47,-1.23 378.55,0.93 h 0.3 V 989.012 h -0.3 c 0,16.318 -0.62,0 -0.62,0 h -384.08 c -0.22,0.929 -0.12,552.828 -0.12,552.828 l -35.59,-0.7 c -0.91,-20.92 -11.69,-40.01 -30.15,-50.16 -9.85,-4.93 -20.63,-7.39 -31.39,-6.16 -2.17,-17.54 -12.62,-34.78 -28.32,-43.71 -9.55,-4.92 -20.62,-7.08 -32.01,-6.76 -2.15,-2.77 -1.54,-7.7 -3.07,-11.39 -5.86,-18.47 -24.31,-35.69 -44.31,-38.47 l -14.16,-0.61 c -2.17,-4.01 -1.55,-9.24 -3.7,-13.23 -6.46,-19.4 -26.17,-33.86 -45.85,-36.32 -40.02,-6.47 -56.64,33.54 -79.1,56.63 l -1.85,1.84 c -15.7,-9.23 -38.47,-9.85 -54.47,-0.92 -15.39,8.31 -26.47,24 -28.62,41.54 -23.09,-0.92 -45.25,12.63 -53.86,32.01 -3.08,6.16 -4.31,12.62 -5.23,19.7 -9.24,0.61 -19.09,1.23 -27.7,4.62 -20.32,7.99 -32.32,28.31 -34.16,49.85 h -39.09 V 989.012 H 737.621 l -0.613,1363.078 v 0" /><path
		id="path22"
		style="fill:#ffffff;fill-opacity:1;fill-rule:nonzero;stroke:none"
		d="m 1749.54,1023.07 c -0.6,-0.63 0,0.72 0,0.11 h -0.92 l 0.3,319.76 h -0.3 l 1.53,233.59 h 0.62 v 0.93 l -86.17,0.61 c -50.47,59.7 -96.33,118.49 -146.5,178.2 l -2.47,0.92 -95.7,-0.31 -53.25,-64.02 c -5.23,-3.38 -13.54,-5.54 -19.69,-2.45 -8.01,2.45 -12.93,10.77 -13.85,18.46 -0.31,5.85 2.77,10.77 5.84,14.77 l 66.48,81.25 32.01,38.78 c 7.7,1.23 17.23,0.62 25.84,0.62 v -0.31 l 289.69,1.15 c 0,0 -0.08,2.23 0.54,1.92 h -0.31 c 0,0 0.53,471.65 0.53,471.26 l 310.39,-1.14 V 1024.03 l -314.61,-0.96 v 0" /><path
		id="path24"
		style="fill:#ffffff;fill-opacity:1;fill-rule:nonzero;stroke:none"
		d="m 771.477,1023.49 1.226,1297.82 315.177,1.2 0.59,-476.99 v -0.62 l 301.91,-1.54 -79.4,-96.03 c -12.01,-15.99 -17.54,-40 -8,-59.08 9.23,-20.62 32.01,-33.54 54.47,-31.7 38.78,2.15 54.47,44.01 79.1,67.09 h 62.46 c 41.86,-48.93 82.48,-99.1 125.28,-151.11 7.38,-12.92 27.07,-27.7 13.53,-44.32 -5.23,-6.76 -14.16,-9.84 -22.77,-7.38 -5.55,1.53 -9.55,6.15 -12.93,9.54 -26.78,31.39 -79.4,92.94 -79.4,92.94 l -24,-19.7 v -2.14 c 26.76,-30.79 52.31,-64.64 78.16,-97.26 4.32,-7.7 4.61,-18.47 0,-26.16 -4,-5.23 -10.46,-8.31 -17.22,-8.93 -11.7,0 -18.48,11.09 -25.55,18.78 l -70.49,87.71 c -10.47,-6.77 -17.54,-14.15 -27.69,-21.85 3.08,-6.16 60.02,-73.25 81.87,-104.64 1.84,-4.62 3.69,-11.08 0.92,-16 -2.77,-6.16 -7.69,-11.7 -14.16,-13.54 -9.24,-2.47 -17.54,2.46 -23.69,8.3 -15.39,20.63 -31.09,38.17 -46.49,58.17 1.86,20.01 -4.3,38.78 -18.46,51.39 -11.38,9.55 -24.92,14.47 -40,13.86 -2.16,18.15 -13.85,33.85 -28.93,42.47 -10.16,4 -21.24,7.38 -32.93,5.54 -2.16,19.69 -13.85,37.55 -32.32,45.54 -20.62,7.7 -47.39,5.24 -62.78,-12 -16.62,-18.77 -30.78,-38.46 -47.09,-56.93 l -2.77,-1.23 -81.25,-0.31 -0.92,-549.97 c 0,0 -315.891,2.39 -315.453,-0.92 v 0" /><path
		id="path26"
		style="fill:#ffffff;fill-opacity:1;fill-rule:nonzero;stroke:none"
		d="m 1421.16,1376.8 -32.62,40.01 0.92,2.46 26.16,31.39 c 13.23,-15.7 30.15,-35.08 41.54,-52.32 3.4,-7.38 0.94,-16.31 -3.69,-21.86 -3.38,-4.6 -8.93,-6.46 -14.16,-7.38 -7.39,-0.31 -13.53,3.08 -18.15,7.7 v 0" /><path
		id="path28"
		style="fill:#ffffff;fill-opacity:1;fill-rule:nonzero;stroke:none"
		d="m 1317.75,1429.42 c -13.54,20.93 13.54,34.78 21.85,50.17 l 25.85,31.08 c 5.85,5.84 14.77,6.16 22.47,3.7 6.46,-2.78 10.77,-9.55 12,-16.01 1.85,-5.85 -0.92,-11.69 -4.61,-16.01 l -45.86,-55.7 c -4.92,-5.54 -12,-6.15 -19.08,-5.23 -4.93,0.92 -10.16,3.7 -12.62,8 v 0" /><path
		id="path30"
		style="fill:#ffffff;fill-opacity:1;fill-rule:nonzero;stroke:none"
		d="m 1261.43,1474.66 c -5.23,5.23 -6.46,12.31 -5.85,19.39 l 2.15,5.54 49.86,60.32 c 4.93,3.39 10.77,6.16 17.24,4.92 5.54,-1.23 11.39,-4.3 14.15,-9.84 11.39,-19.7 -12.61,-32.63 -20.62,-47.39 -10.46,-11.4 -18.77,-24.63 -30.46,-35.09 -7.39,-5.85 -19.7,-3.39 -26.47,2.15 v 0" /><path
		id="path32"
		style="fill:#ffffff;fill-opacity:1;fill-rule:nonzero;stroke:none"
		d="m 1194.95,1533.14 c -7.69,17.85 12.62,27.7 19.39,40.93 11.39,13.24 21.24,28.63 35.7,39.4 7.39,3.38 17.24,2.46 23.09,-3.08 5.53,-4.62 7.69,-12.93 6.15,-20.32 l -1.54,-4.31 -46.47,-57.55 c -4.31,-4 -9.23,-7.38 -15.08,-7.69 -8.93,-0.3 -17.85,4.31 -21.24,12.62 v 0" /></g></g></svg>
