<svg xmlns="http://www.w3.org/2000/svg" width="1400.5" height="232.2" viewBox="0 0 1400.5 232.2">
  <path id="logo_big" d="M1600.3,456.8V557h-18.6V460c0-33.1-13.5-53.9-46.3-53.9s-52.6,20.8-52.6,53.9v97h-18.6V393.2h18.6v31.5h.3c2.8-9.8,18.6-34.6,57.6-34.6C1572.9,390,1600.3,406.7,1600.3,456.8ZM866.5,475.7a85.3,85.3,0,1,1-85.3-85.3A85.377,85.377,0,0,1,866.5,475.7Zm-35.8-.6a50.2,50.2,0,1,0-50.2,50.2A50.232,50.232,0,0,0,830.7,475.1Zm-327-.2a74.406,74.406,0,0,1-.9,13H392.2c2.8,24,15.5,33.2,35.7,33.2,21.2,0,31-8.9,33.9-19.6h39.8c-7.6,37.9-34.1,58.8-74.6,58.8-26.7,0-57.3-9.5-73.2-33.8-15.9,21.6-43.5,34.6-66.9,34.6-48.3,0-87.1-39.6-87.1-86,0-46.3,38.4-85.2,85.3-85.3,28.3-.1,52.6,13.3,68.5,34.8,15.3-23.4,45-35,73.4-35C469.3,389.6,504.2,415.1,503.7,474.9Zm-43.2-17c-2.4-16.8-11.1-29.1-34.8-29.1-19.3,0-30,10.1-33.2,29.1Zm427,99.6h31.9v-221H887.5Zm172.3-69.2c0,29.4-18,45.5-43.9,45.5s-38.5-16.1-38.5-45.5v-95H945.5V495.6c0,46.4,25.9,65,58.1,65,36.6,0,52.4-23.7,55.2-36h.9v32.8h31.9V393.3h-31.9v95Zm178.9-159.4c-8.5,0-16.1,6.9-16.1,15.7a16.419,16.419,0,0,0,16.1,16.1,16.01,16.01,0,0,0,15.7-16.1A15.662,15.662,0,0,0,1238.7,328.9Zm-12.6,228h25.2V393.2h-25.2Zm218.7-81.3a85.3,85.3,0,1,1-85.3-85.3A85.441,85.441,0,0,1,1444.8,475.6Zm-17,0a66.8,66.8,0,1,0-66.8,66.8A66.919,66.919,0,0,0,1427.8,475.6Zm-263.4,38.2V413.6h32.4V393.1h-32.4V352.2h-25.2v40.9h-26.5v20.5h26.5V518.5c0,30.2,17.3,40.6,41.9,40.6a81.59,81.59,0,0,0,18.3-1.9V537.7a73.259,73.259,0,0,1-11.3.6C1170.4,538.4,1164.4,531.4,1164.4,513.8ZM599.6,426.3c22.8,0,37.5,9.8,43,28.7h38.6c-7.2-48.4-50.4-65.7-84.2-65-35.3.8-79.9,24.3-79.9,85.6,0,61.2,50.4,83.7,79.9,84.9,36.7,1.5,77-18.6,84.2-65.6H642.6c-7.2,21.1-25.1,28-43.2,27.8-22.7-.2-41.8-20-41.8-47.1C556.8,450.7,571.9,426.3,599.6,426.3Z" transform="translate(-199.8 -328.9)" fill="#fff"/>
</svg>
