<?xml version="1.0" encoding="UTF-8"?>
<svg id="Calque_2" data-name="Calque 2" xmlns="http://www.w3.org/2000/svg" xmlns:xlink="http://www.w3.org/1999/xlink" viewBox="0 0 442.75 407.06">
  <defs>
    <style>
      .cls-1 {
        fill: #ffdf05;
      }

      .cls-2 {
        fill: #ffe504;
      }

      .cls-3 {
        fill: #ffdc04;
      }

      .cls-4 {
        fill: #ffcb03;
      }

      .cls-5 {
        fill: #ffd800;
      }

      .cls-6 {
        fill: #ffd500;
      }

      .cls-7 {
        fill: #ffd201;
      }

      .cls-8 {
        fill: #ffcf00;
      }

      .cls-9 {
        fill: #fde104;
      }

      .cls-10 {
        fill: #fde90c;
      }

      .cls-11 {
        fill: #fdea14;
      }

      .cls-12 {
        fill: #455941;
      }

      .cls-13 {
        fill: #634f3f;
      }

      .cls-14 {
        fill: #559742;
      }

      .cls-15 {
        fill: #55ae3c;
      }

      .cls-16 {
        fill: #4a6f44;
      }

      .cls-17 {
        fill: #4e8144;
      }

      .cls-18, .cls-19 {
        fill: #fff;
        stroke: #fff;
        stroke-miterlimit: 10;
      }

      .cls-20 {
        fill: url(#Dégradé_sans_nom);
      }

      .cls-19 {
        stroke-width: 3px;
      }
    </style>
    <linearGradient id="Dégradé_sans_nom" data-name="Dégradé sans nom" x1="80.05" y1="-613.14" x2="220.95" y2="-613.14" gradientTransform="translate(0 673.89)" gradientUnits="userSpaceOnUse">
      <stop offset="0" stop-color="#455941"/>
      <stop offset=".31" stop-color="#455941"/>
      <stop offset="1" stop-color="#55ae3c"/>
    </linearGradient>
  </defs>
  <g id="Calque_2-2" data-name="Calque 2">
    <g id="Calque_1-2" data-name="Calque 1-2">
      <g>
        <path class="cls-11" d="m158.25,96.9c-.5,3.3.3,6.6,2.3,9.3,2,2.7,4.9,4.5,8.2,5s6.6-.3,9.3-2.3,4.5-4.9,5-8.2c1.1-6.8-3.6-13.2-10.4-14.3-.7-.1-1.3-.2-1.9-.2-6.2.1-11.5,4.5-12.5,10.7h0Z"/>
        <path class="cls-14" d="m205.85,50.5c1.3,1.2,11.7,6.1,19.8,8.9,9.7,3.3,18.5,5,22.7,1.2,0,0-9.3-2.7-20.5-7-9.4-3.6-13.6-6.7-17.6-6.1-3.3.4-5.9,1.6-4.4,3"/>
        <path class="cls-15" d="m216.55,43.9c1.4.7,11.9,3.2,19.4,3.8,9,.8,20.2.7,21.9-4,0,0-10.5-.5-21-1.8-8.8-1.1-12.3-2.2-16.2-1.3-2.9.8-5.7,2.5-4.1,3.3"/>
        <path class="cls-15" d="m210.95,35.3c.1-1.6,1.5-11.2,4.7-18.6,3.5-8.2,8.2-13.6,10.7-15.5,1-.8,2.1-1.4,2.1.2-.1,2-3,7.5-6,15.9-3.4,9.2-4.2,14.5-6.9,17.1-2.1,1.9-4.8,2.8-4.6.9"/>
        <path class="cls-12" d="m156.15,68c-.8-1.6-4.1-14.7-4.6-23.3-.6-9.8,1.4-15.2,6.5-18.8.3-.2.7,0,.8.3.3,2.4.2,10.5,1.2,20.5s3.7,16,1.8,18.7c-1.9,2.4-4.7,4.5-5.7,2.6"/>
        <path class="cls-17" d="m185.95,50.5c-.6-1.6-2.6-15-2.2-23.6.4-9.8,2.9-15.1,8.4-18.3.3-.2.7,0,.7.3,0,2.4-.9,10.6-.9,20.6-.1,10.1,2,16.3-.1,18.8-2.1,2.3-5.2,4.1-5.9,2.2"/>
        <path class="cls-15" d="m224.95,33.8c3.3.8,11.9-7.2,17.6-11.9,5.7-4.7,10-9.7,10.5-13.4.4-3.1-.8-1.1-1.5-.5-2.8,2.3-9.1,7.4-15.2,12.2-6.8,5.3-11.4,7.6-12.2,10.2-.8,2.1-.8,3,.8,3.4"/>
        <path class="cls-14" d="m198.95,42c-.4-1.6-.4-11.1.2-19.2.9-10.8,5.5-20.5,10.8-22.8,0,0-1.6,10.4-3,21.9-1.1,9.7-.8,17.1-2.7,18.9-2.2,2-4.9,3.2-5.3,1.2"/>
        <path class="cls-16" d="m172.75,58.7c-1.3-1.4-3.2-10.9-4.2-19.5-1.4-11.5.7-21.7,6.2-25.2,0,0,.2,13.9,1.6,24.4,1.4,10.3,3,16,1.4,18.1-2,2.8-3.5,3.9-5,2.2"/>
        <path class="cls-20" d="m216.85,36.8c-12.3,7.9-24.7,15.6-37.3,23-2.6,1.5-5.3,3.1-8,4.5-5.3,2.9-10.7,5.6-16.3,7.9-12.6,5.3-25.8,9.2-39.5,11.6-14.1,2.4-26.2,1.7-35.7-.8,0,0,7.3,4.1,19.6,4.2s33.9-3.4,60-14.6c26.1-11.2,61.3-38.3,61.3-38.3,0,0-2.4,1.5-4.1,2.5"/>
        <path class="cls-10" d="m201.45,97.2c-.6-.1-1.2-.1-1.8-.1-2.5,0-4.9.8-6.9,2.3-2.5,1.8-4.2,4.6-4.7,7.7-1,6.4,3.4,12.4,9.8,13.4s12.4-3.4,13.4-9.8c1-6.5-3.3-12.5-9.8-13.5Z"/>
        <path class="cls-3" d="m253.35,93c-.4,2.8.2,5.7,2,8,1.8,2.3,4.2,3.8,7.1,4.3,5.9.9,11.4-3.1,12.3-9,.4-2.8-.2-5.7-2-8s-4.2-3.8-7.1-4.3c-.6-.1-1.1-.1-1.7-.1-2.3,0-4.5.7-6.4,2.1-2.3,1.6-3.8,4.1-4.2,7h0Z"/>
        <path class="cls-1" d="m247.35,68.2c-.6-.1-1.2-.1-1.7-.1-2.3,0-4.6.7-6.5,2.2-2.4,1.8-4,4.3-4.4,7.3s.3,5.9,2,8.3c1.8,2.4,4.3,4,7.3,4.4,3,.5,5.9-.3,8.3-2,2.4-1.8,4-4.3,4.4-7.3.4-3-.3-5.9-2-8.3-1.9-2.5-4.5-4.1-7.4-4.5h0Z"/>
        <path class="cls-2" d="m200.45,79.4c-1,6.2,3.3,12.1,9.5,13.1,3,.5,6-.3,8.5-2.1,2.5-1.8,4.1-4.4,4.5-7.5s-.3-6-2.1-8.5-4.5-4.1-7.5-4.6c-.6-.1-1.2-.1-1.8-.1-5.4.1-10.3,4.1-11.1,9.7h0Z"/>
        <path class="cls-13" d="m202.45,91.8c-32.7,1.5-75.1-4-75.1-4,0,0-1.6.5-4.6,1.2s-6.3,1.2-6.3,1.2c24.1,3.7,49,5.5,87.4,3.6.5,0,1-.1,1.5-.1-1-.4-2-1.1-2.9-1.9h0Z"/>
        <path class="cls-12" d="m198.35,85.5c-4.1-1.4-9.4-3.3-14.6-5.8-9-4.2-13.4-8-17.8-7-4.5,1-4.3,1.9-3,3.1,1.4,1.3,10.7,6.5,18.3,10,8,3.6,14.4,5.1,19.6,4.3-1.1-1.4-2-3-2.5-4.6h0Z"/>
        <path class="cls-16" d="m197.75,79c.4-2.3,1.3-4.4,2.6-6.2-8.2-4.5-14.2-8.8-18.1-7.9-3.2.7-4.7,1.5-3.4,3,1.2,1.3,9,6.1,16.2,10.2.9.5,1.7.9,2.6,1.4.1-.2.1-.3.1-.5h0Z"/>
        <path class="cls-17" d="m234.55,70.3c-2.8-.8-12.1-3.3-21.1-7.3-9.1-4-14.9-8.1-18.1-7-3.1,1-4.8,1.9-3.3,3.4,1,1,8.4,5.2,15.3,8.4,2-.7,4.3-.9,6.6-.6,3.7.6,6.9,2.5,9.1,5.5,5,.6,9.4.1,11.8-1.7.3-.1.2-.6-.3-.7Z"/>
        <path class="cls-7" d="m280.85,88.3c-.7,4.5,2.4,8.8,7,9.5,2.2.3,4.4-.2,6.2-1.5,1.8-1.3,3-3.2,3.3-5.4h0c.3-2.2-.2-4.4-1.5-6.2s-3.2-3-5.5-3.3c-.4-.1-.9-.1-1.3-.1-1.8,0-3.5.6-4.9,1.6-1.8,1.2-3,3.2-3.3,5.4h0Z"/>
        <path class="cls-9" d="m232.85,88.7c-.7-.1-1.4-.2-2-.2-2.7,0-5.4.9-7.7,2.5-2.8,2.1-4.6,5.1-5.2,8.5-1.1,7.1,3.8,13.8,10.9,14.9,3.4.5,6.9-.3,9.7-2.4s4.7-5.1,5.2-8.5-.3-6.9-2.4-9.7c-2-2.7-5-4.6-8.5-5.1h0Z"/>
        <path class="cls-5" d="m260.45,66.8c-.4,2.4.2,4.7,1.6,6.6s3.5,3.2,5.8,3.6c2.4.4,4.7-.2,6.6-1.6s3.2-3.5,3.6-5.8c.4-2.4-.2-4.7-1.6-6.6s-3.5-3.2-5.8-3.6c-.5-.1-.9-.1-1.4-.1-1.9,0-3.7.6-5.2,1.7-1.9,1.3-3.2,3.4-3.6,5.8Z"/>
        <path class="cls-6" d="m285.85,60.9c-1.2-1.6-2.9-2.7-4.9-3-.4-.1-.8-.1-1.2-.1-1.3,0-2.5.3-3.6.9.9.7,1.8,1.5,2.5,2.5,1.8,2.5,2.6,5.6,2.1,8.7-.2,1-.5,2-.9,2.9,1.5,0,3-.5,4.2-1.4,1.6-1.2,2.7-2.9,3-4.9s0-4-1.2-5.6h0Z"/>
        <path class="cls-8" d="m290.25,61.8c-.3,2,.2,3.9,1.3,5.5s2.9,2.7,4.9,3c4.1.6,7.9-2.2,8.5-6.2s-2.2-7.9-6.2-8.5c-.4-.1-.8-.1-1.2-.1-1.6,0-3.1.5-4.4,1.4-1.6,1.2-2.7,2.9-2.9,4.9h0Z"/>
        <path class="cls-4" d="m303.35,78.2c-.6,3.7,2,7.2,5.7,7.8,1.8.3,3.6-.2,5.1-1.2s2.4-2.7,2.7-4.5c.3-1.8-.2-3.6-1.2-5.1s-2.7-2.4-4.5-2.7c-.4-.1-.7-.1-1-.1-3.4,0-6.3,2.4-6.8,5.8h0Z"/>
      </g>
      <g>
        <rect class="cls-18" x="1.35" y="322.5" width="440.9" height="1.5"/>
        <path class="cls-18" d="m33.45,213.7c10.1,0,14.3-4.9,14.3-11.6,0-5.8-4.3-11.7-14.2-11.7h-17.4v23.4h17.3v-.1h0Zm-17.4-34.2h13.2c4.9,0,6.8-3.3,6.8-6.2,0-3.5-2.9-6.2-8-6.2h-12v12.4h0Zm27.7,1.4c11.4,1.5,19.4,11.3,19.4,22.6,0,11.9-7.5,22.8-21.7,22.8H1.85v-71.9h31.6c8.6,0,15.6,7,15.6,15.9,0,4.1-1.9,8.6-5.3,10.6"/>
        <path class="cls-18" d="m132.75,190.4c0-12.6-10.5-23.1-23.4-23.1s-23.3,10.4-23.3,23.1,10.4,23.1,23.3,23.1,23.4-10.3,23.4-23.1m14.9,0c0,20.3-17,36.7-38.3,36.7s-38.2-16.4-38.2-36.7,17.1-36.7,38.2-36.7,38.3,16.4,38.3,36.7"/>
        <path class="cls-18" d="m174.35,195.8h12.9c11.6,0,17.1-5.9,17.1-14.4,0-7.4-3.9-14.4-15.2-14.4h-14.8v28.8h0Zm16.1,12c-.8.1-1.8.1-2.8.1h-13.4v18.5h-14.6v-71.9h31.7c21,0,28.2,12.4,28.2,25.9,0,12.3-5.1,20.5-14.6,24.6l16.7,21.4h-17.4l-13.8-18.6h0Z"/>
        <polygon class="cls-18" points="305.35 154.4 305.35 226.3 290.65 226.3 290.65 186.5 268.45 217.8 246.05 186.5 246.05 226.3 231.45 226.3 231.45 154.4 238.65 154.4 268.45 195.6 298.15 154.4 305.35 154.4"/>
        <polygon class="cls-18" points="375.45 213.7 375.45 226.3 320.25 226.3 320.25 154.4 373.25 154.4 373.25 167.1 334.45 167.1 334.45 185.3 366.95 185.3 366.95 197.6 334.45 197.6 334.45 213.7 375.45 213.7"/>
        <path class="cls-18" d="m441.55,205.2c0,13.9-11.1,22-27.9,22-12.2,0-18.5-1.1-29.9-6.8l5.3-11.3c9.5,4.6,16.1,5.5,25.1,5.5,7.9,0,12.5-2.9,12.5-8.2,0-4.9-4.8-7-15.3-9.5-14.8-3.4-26.7-7.6-26.7-21.7,0-12.6,10.1-21.6,26.5-21.6,10.9,0,20.5,2.8,27.5,5.8l-5.9,11.6c-6.3-2.6-15.2-4.8-21.9-4.8-7.3,0-11.4,3.3-11.4,7.8,0,5.1,5.1,7.2,15.9,9.7,15.6,3.4,26.2,8.3,26.2,21.5"/>
        <polygon class="cls-18" points="135.25 244.5 135.25 297.7 124.45 297.7 124.45 268.2 107.95 291.3 91.45 268.2 91.45 297.7 80.65 297.7 80.65 244.5 85.95 244.5 107.95 275 129.95 244.5 135.25 244.5"/>
        <rect class="cls-18" x="146.55" y="244.5" width="10.9" height="53.2"/>
        <polygon class="cls-18" points="223.15 244.5 223.15 297.7 212.35 297.7 212.35 268.2 195.85 291.3 179.35 268.2 179.35 297.7 168.55 297.7 168.55 244.5 173.85 244.5 195.85 275 217.95 244.5 223.15 244.5"/>
        <path class="cls-18" d="m277.55,271.1c0-9.4-7.8-17.1-17.3-17.1s-17.2,7.7-17.2,17.1,7.7,17.1,17.2,17.1,17.3-7.7,17.3-17.1m11.1,0c0,15-12.6,27.2-28.3,27.2s-28.3-12.1-28.3-27.2,12.7-27.2,28.3-27.2,28.3,12.2,28.3,27.2"/>
        <path class="cls-18" d="m337.45,282c0,10.3-8.2,16.3-20.6,16.3-9.1,0-13.7-.8-22.1-5.1l3.9-8.4c7,3.4,11.9,4.1,18.6,4.1,5.8,0,9.3-2.1,9.3-6,0-3.6-3.5-5.2-11.3-7-11-2.5-19.8-5.6-19.8-16.1,0-9.4,7.5-16,19.6-16,8.1,0,15.2,2,20.4,4.3l-4.4,8.6c-4.7-2-11.2-3.6-16.2-3.6-5.4,0-8.5,2.4-8.5,5.7,0,3.8,3.8,5.4,11.8,7.2,11.4,2.7,19.3,6.3,19.3,16"/>
        <path class="cls-18" d="m360.25,277.9h16.1l-8.1-17.6-8,17.6Zm19.9,9h-23.8l-4.8,10.8h-11.4l25.4-53.2h5.4l25.4,53.2h-11.4l-4.8-10.8h0Z"/>
        <path class="cls-18" d="m442.25,282c0,10.3-8.2,16.3-20.6,16.3-9.1,0-13.7-.8-22.1-5.1l3.9-8.4c7,3.4,11.9,4.1,18.6,4.1,5.8,0,9.3-2.1,9.3-6,0-3.6-3.5-5.2-11.3-7-11-2.5-19.8-5.6-19.8-16.1,0-9.4,7.5-16,19.6-16,8.1,0,15.2,2,20.4,4.3l-4.4,8.6c-4.7-2-11.2-3.6-16.2-3.6-5.4,0-8.5,2.4-8.5,5.7,0,3.8,3.8,5.4,11.8,7.2,11.5,2.7,19.3,6.3,19.3,16"/>
        <g>
          <path class="cls-18" d="m69.05,265.1c-.3-.9-1.4-1.2-3-.9-1.7.2-3.3.8-5,1.6-1.7.8-3.1,1.8-4.3,3s-2.1,2.6-2.7,4.2-.6,4,0,7.2.9,5.3,1,6.2c0,.9-.1,2-.4,3-.3,1.1-.8,2-1.5,2.8s-1.6,1.4-2.8,1.8c-1.2.5-2.2.2-3-.8s.7-3.4,4.6-7.4,3.5-3.8-1.1.4c-4.6,4.2-6.8,7.1-6.5,8.6.3,1.6,1,2.6,2.2,3.1s2.3.8,3.3.8,2.3-.2,3.8-.6,2.7-1,3.7-1.7c1-.8,1.9-2,2.8-3.8s1.1-3.8.8-6.2c-.4-2.4-.7-4-1-4.9s-.4-2.3-.2-4.5,1-4.1,2.4-5.7,2.6-2.5,3.8-2.5c1.2-.1,2.1-.6,2.8-1.4s.6-1.4.3-2.3h0Z"/>
          <path class="cls-18" d="m46.85,282.8c1.1-1.4,2-2.6,2.8-3.6s.6-1-.4,0-2.1,2-3.3,3.1c-1.1,1.1-3.2,2.2-6.1,3.4-2.9,1.2-4.9,1.9-6,2.1s-2.1.3-3.1.1c-1-.2-1.9-.8-2.7-1.8s-1.2-2.1-1.2-3.3.4-2.4,1.2-3.6c0-.1.2-.1.4-.1.2.1.5.1.9.2s.9.1,1.5.1,1.3-.2,2-.5c2.7-1.2,4.8-2.4,6.4-3.6,1.6-1.2,2.4-2.7,2.5-4.5,0-1.8-.2-3.2-.8-4.4-.6-1.1-2.3-1.6-5.1-1.4-2.4.5-4.5,1.4-6.3,2.8s-3.3,2.8-4.4,4.1c-1.1,1.4-2,3.1-2.9,5.2-.8,2.1-1.3,4-1.2,5.8v.3c-.6.4-1.2.7-1.8,1.1-5.3,3.3-8.5,5-9.8,5.4-1.3.3-2.2.1-2.7-.7s.1-4.3,1.7-10.6c1.6-6.3,4.3-13.1,8-20.4,3.7-7.3,5.5-11.4,5.4-12.1-.1-.8-.7-1.4-1.8-1.9s-2.5.6-4.1,3.2c-1.7,2.6-3.3,5.5-4.9,8.7-1.6,3.2-3.5,8.2-5.9,15s-3.8,11.7-4.3,14.7-.5,5.1.2,6.2,1.3,2.1,2,2.9,1.8,1.1,3.2,1c1.5-.1,3.2-.7,5.2-1.8,2-1.1,3.6-2.4,5-3.8s2.8-2.8,4.1-4.1c.2-.2.5-.5.8-.7.1.7.3,1.3.5,1.8.5,1,1,1.9,1.7,2.6.7.8,1.5,1.4,2.3,1.9s2.1.9,3.7,1.1c1.7.2,3.4,0,5.1-.6s3.1-1.3,4.1-2,2.4-1.8,4-3.2c1.6-1.3,3-2.7,4.1-4.1h0Zm-16.6-10.2c.6-1.5,3.1-2.9,3.1-2.9,2.3-1.1,3.4-1.4,3.7-.7.3.7.5,1.2-.4,2.2-1,1-3.4,2.4-4.8,3-1.6.7-2.2-.1-1.6-1.6Z"/>
        </g>
        <g>
          <path class="cls-19" d="m3.1,356.54c0-6.7,4.5-11.5,11.8-11.5,6.9,0,11.9,4.3,11.9,11.5,0,6.7-4.5,11.5-11.9,11.5-6.9-.1-11.8-4.4-11.8-11.5Zm22.4,0c0-6-4-10.3-10.6-10.3-6.1,0-10.6,3.9-10.6,10.3,0,6,4,10.3,10.6,10.3,6.2,0,10.6-3.9,10.6-10.3Z"/>
          <path class="cls-19" d="m52,345.24v1.1h-13.6v10.8h11.8v1.1h-11.8v9.5h-1.2v-22.5h14.8Z"/>
          <path class="cls-19" d="m76.7,345.24v1.1h-13.6v10.8h11.8v1.1h-11.8v9.5h-1.2v-22.5s14.8,0,14.8,0Z"/>
          <path class="cls-19" d="m87.8,345.24v22.5h-1.2v-22.5h1.2Z"/>
          <path class="cls-19" d="m98.4,356.34c0-7.1,4.5-11.3,11.6-11.3,4.2,0,7.5,1.7,9.6,4.2l-1,.8c-1.9-2.3-4.8-3.9-8.7-3.9-6.4,0-10.4,3.7-10.4,10.1s4,10.5,10.4,10.5c3.8,0,6.8-1.5,8.7-3.8l1,.8c-2.2,2.6-5.4,4.2-9.6,4.2-7.1.1-11.6-4.5-11.6-11.6h0Z"/>
          <path class="cls-19" d="m144.6,345.24v1.1h-13.6v9.9h11.7v1.1h-11.7v9.3h14.3v1.1h-15.5v-22.5h14.8Z"/>
          <path class="cls-19" d="m175.7,345.24c6.7,0,10.8,3.8,10.8,11.2,0,7-3.6,11.3-10.6,11.3h-7.7v-22.5h7.5Zm9.6,11.2c0-6.3-3.2-10-9.6-10h-6.3v20.2h6.4c5.8,0,9.4-3.5,9.5-10.2h0Z"/>
          <path class="cls-19" d="m211.8,345.24v1.1h-13.6v9.9h11.7v1.1h-11.7v9.3h14.3v1.1h-15.5v-22.5h14.8Z"/>
          <path class="cls-19" d="m233.8,346.34v-1.1h17.6v1.1h-8.2v21.4h-1.2v-21.4h-8.2Z"/>
          <path class="cls-19" d="m258.5,356.54c0-6.7,4.5-11.5,11.8-11.5,6.9,0,11.8,4.3,11.8,11.5,0,6.7-4.5,11.5-11.8,11.5-6.9-.1-11.8-4.4-11.8-11.5Zm22.3,0c0-6-4-10.3-10.6-10.3-6.1,0-10.6,3.9-10.6,10.3,0,6,4,10.3,10.6,10.3,6.2,0,10.6-3.9,10.6-10.3Z"/>
          <path class="cls-19" d="m292.4,359.04v-13.8h1.2v13.7c0,5.2,2.4,7.9,7.6,7.9s7.7-2.6,7.7-7.9v-13.7h1.2v13.8c0,5.8-2.8,8.9-8.9,8.9s-8.8-3-8.8-8.9h0Z"/>
          <path class="cls-19" d="m331.3,359.84c-.6.1-1.1.1-1.8.1h-6.7v7.8h-1.2v-22.5h8.4c5.3,0,8,2.5,8,7.2,0,3.9-1.9,6.3-5.4,7.1l6,8.2h-1.5l-5.8-7.9h0Zm5.4-7.4c0-4-2.3-6.1-6.9-6.1h-7.1v12.5h6.7c4.7,0,7.3-2.2,7.3-6.4h0Z"/>
          <path class="cls-19" d="m349.8,345.24v22.5h-1.2v-22.5h1.2Z"/>
          <path class="cls-19" d="m360.4,365.94l.5-1.2c2.4,1.4,4.8,2,8.1,2,4.1,0,6.7-1.6,6.7-4.9,0-3.5-3.3-4.1-7.1-5-4.8-1-8-2.1-8-6.2,0-3.5,2.8-5.7,7.6-5.7,2.9,0,5.9.7,7.9,1.7l-.6,1c-1.8-1-4.6-1.6-7.3-1.6-4,0-6.4,1.9-6.4,4.5,0,3.1,2.8,4.1,7.1,5,4.2.9,8,1.8,8,6.1s-3.1,6.1-7.9,6.1c-3.6.2-6.1-.4-8.6-1.8h0Z"/>
          <path class="cls-19" d="m409,367.74h-1.2v-19.7l-9.4,15.3h-.6l-9.4-15.3v19.7h-1.2v-22.5h.8l10.1,16.5,10.1-16.5h.8v22.5h0Z"/>
          <path class="cls-19" d="m435.6,345.24v1.1h-13.6v9.9h11.6v1.1h-11.6v9.3h14.3v1.1h-15.5v-22.5h14.8Z"/>
        </g>
        <g>
          <path class="cls-19" d="m100.7,402.14c-2.2,1.7-4.5,2.7-7.8,2.7-4.6,0-6.7-2.7-6.7-5.5,0-2.2,1.6-4.6,5.3-6.1-2.4-2.3-3.7-3.6-3.7-6,0-2.9,2.4-5.2,5.6-5.2s5.7,2,5.7,5.2c0,2.2-1.3,4.5-5.7,6.3l7.2,7c1.1-1.3,1.8-3.1,2-5.3h1c-.1,2-.6,4.2-2.2,6.1l2.9,2.8-.8.8-2.8-2.8h0Zm-.8-.8l-7.6-7.3c-2.9,1.2-4.9,2.9-4.9,5.3s2.1,4.4,5.5,4.4c2.8,0,4.8-.7,7-2.4h0Zm-7.3-8.6c3.5-1.5,5.3-3.1,5.3-5.4,0-2.5-1.8-4.2-4.6-4.2-2.6,0-4.4,1.9-4.4,4.1.1,2.1,1.3,3.2,3.7,5.5Z"/>
          <path class="cls-19" d="m134.1,382.24c6.7,0,10.8,3.8,10.8,11.2,0,7-3.6,11.3-10.6,11.3h-7.7v-22.5h7.5Zm9.6,11.1c0-6.3-3.2-10-9.5-10h-6.3v20.2h6.4c5.8,0,9.4-3.5,9.4-10.2h0Z"/>
          <path class="cls-19" d="m170.3,382.24v1.1h-13.7v9.9h11.6v1.1h-11.6v9.3h14.3v1.1h-15.5v-22.5h14.9Z"/>
          <path class="cls-19" d="m179.9,402.94l.5-1.2c2.4,1.4,4.8,2,8.1,2,4.1,0,6.7-1.6,6.7-4.9,0-3.5-3.3-4.1-7.1-5-4.8-1-8-2.1-8-6.2,0-3.5,2.8-5.7,7.6-5.7,2.9,0,5.9.7,7.9,1.7l-.6,1c-1.8-1-4.6-1.6-7.3-1.6-4,0-6.4,1.9-6.4,4.5,0,3.1,2.8,4.1,7.1,5,4.2.9,8.1,1.8,8.1,6.1s-3.1,6.1-7.9,6.1c-3.6.2-6.1-.5-8.7-1.8h0Z"/>
          <path class="cls-19" d="m220.7,382.24v21.4h13.9v1.1h-15.1v-22.5h1.2Z"/>
          <path class="cls-19" d="m242.1,393.44c0-6.7,4.5-11.5,11.8-11.5,6.9,0,11.8,4.3,11.8,11.5,0,6.7-4.5,11.5-11.8,11.5-6.9,0-11.8-4.3-11.8-11.5Zm22.4,0c0-6-4-10.3-10.6-10.3-6.1,0-10.6,3.9-10.6,10.3,0,6,4,10.3,10.6,10.3,6.1,0,10.6-3.9,10.6-10.3Z"/>
          <path class="cls-19" d="m277.5,382.24v22.5h-1.2v-22.5h1.2Z"/>
          <path class="cls-19" d="m288.1,402.94l.5-1.2c2.4,1.4,4.8,2,8.1,2,4.1,0,6.7-1.6,6.7-4.9,0-3.5-3.3-4.1-7.1-5-4.8-1-8-2.1-8-6.2,0-3.5,2.8-5.7,7.6-5.7,2.9,0,5.9.7,7.9,1.7l-.6,1c-1.8-1-4.6-1.6-7.3-1.6-4,0-6.4,1.9-6.4,4.5,0,3.1,2.8,4.1,7.1,5,4.2.9,8,1.8,8,6.1s-3.1,6.1-7.9,6.1c-3.6.2-6.1-.5-8.6-1.8h0Z"/>
          <path class="cls-19" d="m316.1,382.24v22.5h-1.2v-22.5h1.2Z"/>
          <path class="cls-19" d="m337.7,396.84c-.6.1-1.1.1-1.8.1h-6.7v7.8h-1.2v-22.5h8.4c5.3,0,8,2.5,8,7.2,0,3.9-1.9,6.3-5.4,7.1l6,8.2h-1.5l-5.8-7.9h0Zm5.4-7.5c0-4-2.3-6.1-6.9-6.1h-7.1v12.5h6.7c4.7,0,7.3-2.2,7.3-6.4h0Z"/>
          <path class="cls-19" d="m353.7,402.94l.5-1.2c2.4,1.4,4.8,2,8.1,2,4.1,0,6.7-1.6,6.7-4.9,0-3.5-3.3-4.1-7.1-5-4.8-1-8-2.1-8-6.2,0-3.5,2.8-5.7,7.6-5.7,2.9,0,5.9.7,7.9,1.7l-.6,1c-1.8-1-4.6-1.6-7.3-1.6-4,0-6.4,1.9-6.4,4.5,0,3.1,2.8,4.1,7.1,5,4.2.9,8,1.8,8,6.1s-3.1,6.1-7.9,6.1c-3.5.2-6.1-.5-8.6-1.8h0Z"/>
        </g>
      </g>
    </g>
  </g>
</svg>