<?xml version="1.0" encoding="UTF-8"?>
<svg xmlns="http://www.w3.org/2000/svg" xmlns:xlink="http://www.w3.org/1999/xlink" viewBox="0 0 45 52" width="45" height="52">
  <path fill="white" transform="translate(0.0427227 0.0693054)" d="M17.367466 30.184277C17.426462 32.538296 18.717129 36.852894 26.47275 36.852894C30.67606 36.852894 35.246429 36.009964 35.246429 31.537643C35.246429 28.242188 32.049553 27.359682 27.550386 26.300676L22.991642 25.241383C16.12417 23.652586 9.0523911 22.11203 9.4935598 12.824786C9.5772591 11.057755 9.3526068 10.333551 6.902637 10.885298C4.7398047 11.372336 2.3534822 12.024032 0.91924745 12.480739C0.45715359 12.628064 -0.042721581 12.288928 0.00290656 12.254841C1.2278913 11.341716 5.1943426 9.0012722 10.166066 6.2052779C15.98438 2.9332216 19.582609 0.61242181 24.635418 0.15571475C26.629686 -0.024541548 28.684988 -0.069316745 29.933222 0.1343382C30.342422 0.2010677 30.739416 0.27790773 31.124203 0.36399165C31.567698 0.46336371 31.995207 0.57515728 32.407314 0.69850576C40.088825 2.9976401 42.362385 9.3028555 42.410049 13.472149L41.061836 13.472149L39.367493 13.472149L33.885143 13.472149C33.648281 11.589279 32.937706 7.1169586 25.182373 7.1169586C21.807634 7.1169586 17.781897 8.3527546 17.781897 12.177711C17.781897 15.472878 20.505053 16.178883 22.281355 16.590813L32.641556 19.121334C38.443596 20.53363 43.771626 22.887651 43.771626 30.478638C43.771626 37.286777 41.55183 40.969322 31.75515 44.215092C22.338608 47.335201 16.663862 48.5242 11.21871 49.998604C11.077466 50.036736 11.143438 49.285954 11.888601 48.790539C12.234735 48.560307 17.363688 45.891418 18.434349 45.280453C20.017965 44.376858 20.271681 43.287811 18.175694 42.631493C17.022493 42.270401 16.871368 42.20396 15.950958 41.789719C10.297138 39.244755 8.8422689 34.223576 8.8422689 30.184277L17.367466 30.184277Z" fill-rule="evenodd"></path>
</svg>
