<svg xmlns="http://www.w3.org/2000/svg" width="160" height="38" viewBox="0 0 160 38">
  <g id="Logo" transform="translate(0 0)">
    <path id="Pfad_104" data-name="Pfad 104" d="M99.371-21.305h38.69V-34.122H99.371Z" transform="translate(21.939 46.744)" fill="#fff"/>
    <path id="Pfad_105" data-name="Pfad 105" d="M68.588-5.411h38.69v-38H68.588Z" transform="translate(11.03 43.411)" fill="#e20613"/>
    <path id="Pfad_106" data-name="Pfad 106" d="M39.241-5.411H77.869v-38H39.241Z" transform="translate(0.63 43.411)" fill="#e20613"/>
    <path id="Pfad_107" data-name="Pfad 107" d="M6.114,6.8-3.234-8.506l8.977-10.43H-2.119L-9.8-9.788v-9.148H-16.11V6.8H-9.8V-1.248l2.229-2.5L-1.5,6.8Z" transform="translate(65.202 24.757)" fill="#fff"/>
    <path id="Pfad_108" data-name="Pfad 108" d="M9.8-5.411H48.432v-38H9.8Z" transform="translate(-9.804 43.411)" fill="#e20613"/>
    <path id="Pfad_109" data-name="Pfad 109" d="M9.2,0H2.449l-3.4,13.6L-5.228,0h-4.58l-4.271,13.6L-17.484,0h-6.747l7.242,25.739h5.261l4.209-12.686,4.271,12.686H2.076Z" transform="translate(26.832 5.82)" fill="#fff"/>
    <path id="Pfad_110" data-name="Pfad 110" d="M99.371-30.594h38.69V-43.411H99.371Z" transform="translate(21.939 43.411)" fill="#e20613"/>
    <path id="Pfad_111" data-name="Pfad 111" d="M99.371-12.078h38.69V-24.833H99.371Z" transform="translate(21.939 50.078)" fill="#e20613"/>
    <path id="Pfad_112" data-name="Pfad 112" d="M3.83,0c-18.571.5-18.557,26.746,0,27.293C22.424,26.645,22.411.581,3.83,0m0,6.333h.026a6.18,6.18,0,0,1,4.77,2.392,7.971,7.971,0,0,1,1.6,4.884,8.04,8.04,0,0,1-1.574,4.91,6.3,6.3,0,0,1-4.8,2.442H3.83A6.326,6.326,0,0,1-.992,18.518,8.077,8.077,0,0,1-2.54,13.583,8.026,8.026,0,0,1-.941,8.7,6.164,6.164,0,0,1,3.83,6.333" transform="translate(95.185 5.005)" fill="#fff"/>
  </g>
</svg>
