<svg viewBox="381.2388 201.8525 383.5224 192.2949" width="5000" height="2506.9578726040513" xmlns="http://www.w3.org/2000/svg" xmlns:xlink="http://www.w3.org/1999/xlink" preserveAspectRatio="none"><defs></defs><style>.aD6z1nYkhcolor {fill:#FFFFFF;fill-opacity:1;}.aLgOaV3zRcolors-0 {fill:#FFFFFF;fill-opacity:0.85;}.ashadowa5YulaU97oY-floo {flood-color:#000000;flood-opacity:1;}</style><defs>
      <filter
        x="-1000"
        y="-1000"
        width="5000"
        height="5000"
        id="g539U9yWp"
        filterUnits="userSpaceOnUse"
        primitiveUnits="userSpaceOnUse"
        color-interpolation-filters="sRGB">
        <feMerge><feMergeNode in="SourceGraphic" /></feMerge>
      </filter></defs><g opacity="0.2" transform="rotate(0 426.5158 201.8525)">
<svg width="289.446" height="192.2949" x="426.5158" y="201.8525" version="1.1" preserveAspectRatio="none" viewBox="4.200999736785889 21.96699905395508 89.02999114990234 59.14799880981445">
  <g transform="matrix(1 0 0 1 0 0)" class="aLgOaV3zRcolors-0"><g><circle cx="46.796" cy="22.734" r="0.767"></circle><circle cx="46.796" cy="26.58" r="0.886"></circle><circle cx="46.796" cy="30.425" r="1.004"></circle><circle cx="46.797" cy="34.271" r="1.12"></circle><circle cx="46.796" cy="38.079" r="1.24"></circle><circle cx="46.797" cy="41.963" r="1.356"></circle><circle cx="46.797" cy="45.809" r="1.476"></circle><circle cx="43.004" cy="22.734" r="0.767"></circle><circle cx="43.004" cy="26.58" r="0.886"></circle><circle cx="43.004" cy="30.425" r="1.004"></circle><circle cx="43.004" cy="34.271" r="1.12"></circle><circle cx="43.004" cy="38.079" r="1.24"></circle><circle cx="43.004" cy="41.963" r="1.356"></circle><circle cx="43.004" cy="80.348" r="0.767"></circle><circle cx="43.004" cy="76.57" r="0.886"></circle><circle cx="43.004" cy="72.723" r="1.003"></circle><circle cx="43.004" cy="68.876" r="1.121"></circle><circle cx="43.004" cy="65.031" r="1.239"></circle><circle cx="43.004" cy="61.186" r="1.356"></circle><circle cx="46.796" cy="80.348" r="0.767"></circle><circle cx="46.796" cy="76.57" r="0.886"></circle><circle cx="46.796" cy="72.723" r="1.003"></circle><circle cx="46.797" cy="68.876" r="1.121"></circle><circle cx="46.796" cy="65.031" r="1.239"></circle><circle cx="46.797" cy="61.186" r="1.356"></circle><circle cx="43.004" cy="45.809" r="1.476"></circle><circle cx="46.797" cy="49.447" r="1.476"></circle><circle cx="43.004" cy="49.447" r="1.476"></circle><circle cx="46.797" cy="53.083" r="1.475"></circle><circle cx="43.004" cy="53.083" r="1.475"></circle><circle cx="46.797" cy="57.024" r="1.475"></circle><circle cx="50.594" cy="22.734" r="0.767"></circle><circle cx="50.591" cy="26.58" r="0.886"></circle><circle cx="50.586" cy="30.425" r="1.004"></circle><circle cx="50.582" cy="34.271" r="1.12"></circle><circle cx="50.578" cy="38.079" r="1.24"></circle><circle cx="50.573" cy="41.963" r="1.356"></circle><circle cx="50.57" cy="45.809" r="1.476"></circle><circle cx="50.594" cy="80.348" r="0.767"></circle><circle cx="50.591" cy="76.57" r="0.886"></circle><circle cx="50.586" cy="72.723" r="1.003"></circle><circle cx="50.582" cy="68.876" r="1.121"></circle><circle cx="50.578" cy="65.031" r="1.239"></circle><circle cx="50.573" cy="61.186" r="1.356"></circle><circle cx="50.57" cy="49.447" r="1.476"></circle><circle cx="50.57" cy="53.083" r="1.475"></circle><circle cx="50.57" cy="57.024" r="1.475"></circle><circle cx="54.53" cy="76.57" r="0.886"></circle><circle cx="54.525" cy="72.723" r="1.003"></circle><circle cx="54.522" cy="68.876" r="1.121"></circle><circle cx="54.52" cy="65.031" r="1.239"></circle><circle cx="58.309" cy="49.571" r="1.24"></circle><circle cx="62.145" cy="49.571" r="1.144"></circle><circle cx="65.983" cy="49.571" r="1.049"></circle><circle cx="69.821" cy="49.571" r="0.954"></circle><circle cx="73.659" cy="49.571" r="0.859"></circle><circle cx="77.497" cy="49.571" r="0.763"></circle><circle cx="81.334" cy="49.571" r="0.668"></circle><circle cx="85.172" cy="49.571" r="0.573"></circle><circle cx="89.01" cy="49.571" r="0.479"></circle><circle cx="92.848" cy="49.571" r="0.383"></circle><path d="M35.535,52.165c0.684,0,1.239,0.553,1.239,1.238s-0.556,1.24-1.239,1.24s-1.238-0.555-1.238-1.24   C34.297,52.722,34.852,52.165,35.535,52.165z"></path><circle cx="31.698" cy="53.403" r="1.144"></circle><circle cx="27.713" cy="53.403" r="0.764"></circle><circle cx="23.876" cy="53.403" r="0.668"></circle><circle cx="20.038" cy="53.403" r="0.573"></circle><circle cx="16.2" cy="53.403" r="0.479"></circle><circle cx="12.363" cy="53.403" r="0.383"></circle><circle cx="58.356" cy="57.149" r="1.144"></circle><circle cx="62.194" cy="57.149" r="1.049"></circle><circle cx="66.032" cy="57.149" r="0.953"></circle><circle cx="69.87" cy="57.149" r="0.858"></circle><circle cx="73.707" cy="57.149" r="0.763"></circle><circle cx="77.545" cy="57.149" r="0.669"></circle><circle cx="81.383" cy="57.149" r="0.572"></circle><circle cx="85.221" cy="57.149" r="0.479"></circle><circle cx="89.058" cy="57.149" r="0.383"></circle><circle cx="58.356" cy="60.788" r="1.144"></circle><circle cx="62.194" cy="60.788" r="1.049"></circle><circle cx="66.032" cy="60.788" r="0.953"></circle><path d="M70.729,60.788c0,0.473-0.384,0.857-0.859,0.857c-0.474,0-0.857-0.385-0.857-0.857c0-0.477,0.384-0.859,0.857-0.859   C70.345,59.929,70.729,60.312,70.729,60.788z"></path><circle cx="73.707" cy="60.788" r="0.763"></circle><circle cx="77.545" cy="60.788" r="0.669"></circle><circle cx="81.383" cy="60.788" r="0.572"></circle><circle cx="85.221" cy="60.788" r="0.479"></circle><circle cx="89.058" cy="60.788" r="0.383"></circle><circle cx="58.449" cy="65.032" r="0.668"></circle><circle cx="62.286" cy="65.032" r="0.573"></circle><circle cx="66.124" cy="65.032" r="0.477"></circle><circle cx="69.963" cy="65.031" r="0.384"></circle><circle cx="58.449" cy="68.972" r="0.668"></circle><circle cx="62.286" cy="68.972" r="0.573"></circle><circle cx="66.124" cy="68.972" r="0.477"></circle><circle cx="69.963" cy="68.973" r="0.382"></circle><circle cx="58.449" cy="72.761" r="0.668"></circle><circle cx="62.286" cy="72.761" r="0.573"></circle><circle cx="66.124" cy="72.761" r="0.477"></circle><circle cx="69.963" cy="72.762" r="0.382"></circle><path d="M59.117,76.548c0,0.369-0.3,0.67-0.669,0.67s-0.668-0.301-0.668-0.67c0-0.367,0.299-0.666,0.668-0.666   S59.117,76.181,59.117,76.548z"></path><path d="M62.858,76.548c0,0.318-0.255,0.576-0.572,0.576c-0.316,0-0.573-0.258-0.573-0.576c0-0.314,0.257-0.57,0.573-0.57   C62.604,75.978,62.858,76.233,62.858,76.548z"></path><path d="M66.601,76.548c0,0.264-0.212,0.48-0.478,0.48c-0.263,0-0.477-0.217-0.477-0.48c0-0.262,0.214-0.477,0.477-0.477   C66.389,76.071,66.601,76.286,66.601,76.548z"></path><circle cx="39.236" cy="80.348" r="0.767"></circle><circle cx="35.301" cy="80.349" r="0.573"></circle><circle cx="31.464" cy="80.349" r="0.478"></circle><circle cx="27.627" cy="80.349" r="0.383"></circle><circle cx="58.309" cy="53.209" r="1.239"></circle><circle cx="62.145" cy="53.21" r="1.144"></circle><circle cx="65.983" cy="53.21" r="1.049"></circle><circle cx="69.821" cy="53.21" r="0.954"></circle><circle cx="73.659" cy="53.21" r="0.859"></circle><circle cx="77.497" cy="53.21" r="0.763"></circle><circle cx="81.334" cy="53.21" r="0.668"></circle><circle cx="85.172" cy="53.21" r="0.573"></circle><circle cx="89.01" cy="53.21" r="0.479"></circle><circle cx="54.514" cy="61.186" r="1.356"></circle><circle cx="54.511" cy="49.447" r="1.476"></circle><circle cx="58.309" cy="45.783" r="1.239"></circle><circle cx="62.145" cy="45.782" r="1.144"></circle><circle cx="65.983" cy="45.782" r="1.049"></circle><circle cx="69.821" cy="45.782" r="0.954"></circle><circle cx="73.659" cy="45.782" r="0.859"></circle><circle cx="77.497" cy="45.782" r="0.763"></circle><path d="M82.002,45.782c0,0.369-0.299,0.67-0.667,0.67c-0.369,0-0.669-0.301-0.669-0.67c0-0.367,0.3-0.668,0.669-0.668   C81.703,45.114,82.002,45.415,82.002,45.782z"></path><circle cx="85.172" cy="45.782" r="0.573"></circle><circle cx="89.01" cy="45.782" r="0.479"></circle><circle cx="92.848" cy="45.782" r="0.383"></circle><circle cx="35.441" cy="45.632" r="0.954"></circle><circle cx="31.604" cy="45.632" r="0.858"></circle><circle cx="27.766" cy="45.632" r="0.764"></circle><circle cx="23.928" cy="45.632" r="0.668"></circle><circle cx="20.09" cy="45.632" r="0.573"></circle><circle cx="16.252" cy="45.632" r="0.478"></circle><circle cx="12.414" cy="45.631" r="0.382"></circle><circle cx="35.368" cy="30.323" r="0.574"></circle><circle cx="31.529" cy="30.323" r="0.479"></circle><circle cx="27.692" cy="30.323" r="0.383"></circle><circle cx="35.368" cy="34.265" r="0.689"></circle><circle cx="31.529" cy="34.265" r="0.479"></circle><circle cx="27.692" cy="34.265" r="0.383"></circle><circle cx="35.463" cy="26.687" r="0.478"></circle><path d="M54.52,43.233c-0.686,0-1.24-0.555-1.24-1.24c0-0.682,0.555-1.238,1.24-1.238c0.683,0,1.237,0.557,1.237,1.238   C55.757,42.679,55.202,43.233,54.52,43.233z"></path><circle cx="58.356" cy="41.993" r="1.144"></circle><circle cx="62.194" cy="41.993" r="1.049"></circle><circle cx="54.52" cy="38.079" r="1.24"></circle><circle cx="58.356" cy="38.079" r="1.144"></circle><circle cx="62.194" cy="38.079" r="1.049"></circle><circle cx="66.032" cy="41.993" r="0.953"></circle><path d="M70.729,41.993c0,0.473-0.384,0.861-0.859,0.861c-0.474,0-0.857-0.389-0.857-0.861s0.384-0.859,0.857-0.859   C70.345,41.134,70.729,41.521,70.729,41.993z"></path><circle cx="54.464" cy="34.265" r="1.049"></circle><circle cx="58.302" cy="34.265" r="0.954"></circle><circle cx="62.14" cy="34.265" r="0.859"></circle><circle cx="73.707" cy="41.993" r="0.763"></circle><circle cx="77.545" cy="41.993" r="0.669"></circle><circle cx="66.027" cy="38.079" r="0.667"></circle><circle cx="81.383" cy="41.993" r="0.572"></circle><circle cx="69.864" cy="38.079" r="0.573"></circle><circle cx="85.221" cy="41.993" r="0.479"></circle><circle cx="89.058" cy="41.995" r="0.383"></circle><circle cx="73.6" cy="38.079" r="0.383"></circle><circle cx="35.251" cy="38.079" r="1.144"></circle><circle cx="31.413" cy="38.079" r="1.049"></circle><circle cx="27.58" cy="38.079" r="0.668"></circle><circle cx="23.743" cy="38.079" r="0.573"></circle><circle cx="20.008" cy="38.079" r="0.383"></circle><circle cx="35.251" cy="42.019" r="1.144"></circle><circle cx="31.413" cy="42.019" r="1.049"></circle><circle cx="27.58" cy="42.019" r="0.668"></circle><circle cx="23.743" cy="42.019" r="0.573"></circle><circle cx="20.008" cy="42.021" r="0.383"></circle><circle cx="54.616" cy="30.349" r="1.048"></circle><path d="M59.117,30.349c0,0.369-0.3,0.67-0.669,0.67s-0.668-0.301-0.668-0.67c0-0.367,0.299-0.668,0.668-0.668   S59.117,29.981,59.117,30.349z"></path><circle cx="62.286" cy="30.349" r="0.573"></circle><circle cx="66.021" cy="30.35" r="0.384"></circle><circle cx="54.405" cy="26.712" r="0.573"></circle><circle cx="58.141" cy="26.712" r="0.383"></circle><circle cx="54.511" cy="45.658" r="1.476"></circle><circle cx="54.511" cy="53.083" r="1.475"></circle><circle cx="54.511" cy="57.024" r="1.475"></circle><circle cx="43.004" cy="57.024" r="1.475"></circle><circle cx="39.237" cy="26.58" r="0.886"></circle><circle cx="39.237" cy="30.425" r="1.004"></circle><circle cx="35.368" cy="76.399" r="0.574"></circle><circle cx="31.529" cy="76.399" r="0.479"></circle><circle cx="27.692" cy="76.397" r="0.383"></circle><circle cx="39.237" cy="76.5" r="1.003"></circle><circle cx="39.237" cy="34.271" r="1.12"></circle><circle cx="39.237" cy="38.079" r="1.24"></circle><path d="M34.107,72.329c0-0.629,0.512-1.143,1.143-1.143c0.633,0,1.146,0.514,1.146,1.143c0,0.635-0.513,1.146-1.146,1.146   C34.619,73.476,34.107,72.964,34.107,72.329z"></path><path d="M30.364,72.329c0-0.576,0.47-1.047,1.049-1.047c0.58,0,1.049,0.471,1.049,1.047c0,0.584-0.469,1.053-1.049,1.053   C30.834,73.382,30.364,72.913,30.364,72.329z"></path><path d="M26.912,72.329c0-0.365,0.301-0.666,0.669-0.666c0.369,0,0.667,0.301,0.667,0.666c0,0.371-0.298,0.67-0.667,0.67   C27.213,72.999,26.912,72.7,26.912,72.329z"></path><path d="M23.17,72.329c0-0.314,0.257-0.57,0.573-0.57s0.572,0.256,0.572,0.57c0,0.318-0.256,0.574-0.572,0.574   S23.17,72.647,23.17,72.329z"></path><path d="M20.008,71.948c0.212,0,0.384,0.17,0.384,0.381c0,0.215-0.172,0.385-0.384,0.385c-0.21,0-0.383-0.17-0.383-0.385   C19.625,72.118,19.798,71.948,20.008,71.948z"></path><path d="M39.237,71.093c-0.687,0-1.24,0.553-1.24,1.236c0,0.688,0.554,1.24,1.24,1.24c0.684,0,1.238-0.553,1.238-1.24   C40.476,71.646,39.921,71.093,39.237,71.093z"></path><circle cx="39.237" cy="41.963" r="1.356"></circle><circle cx="35.251" cy="49.446" r="1.144"></circle><circle cx="31.413" cy="49.446" r="1.049"></circle><circle cx="27.58" cy="49.446" r="0.668"></circle><circle cx="23.743" cy="49.446" r="0.573"></circle><circle cx="20.008" cy="49.446" r="0.383"></circle><path d="M39.237,48.032c-0.751,0-1.357,0.609-1.357,1.359c0,0.746,0.606,1.355,1.357,1.355c0.748,0,1.356-0.609,1.356-1.355   C40.594,48.642,39.985,48.032,39.237,48.032z"></path><circle cx="39.237" cy="45.809" r="1.476"></circle><circle cx="39.237" cy="53.404" r="1.474"></circle><circle cx="35.535" cy="57.193" r="1.239"></circle><circle cx="31.698" cy="57.192" r="1.144"></circle><circle cx="27.713" cy="57.192" r="0.764"></circle><circle cx="23.876" cy="57.192" r="0.668"></circle><circle cx="20.038" cy="57.192" r="0.573"></circle><circle cx="16.2" cy="57.192" r="0.479"></circle><circle cx="12.363" cy="57.193" r="0.382"></circle><circle cx="8.422" cy="57.191" r="0.317"></circle><circle cx="4.481" cy="57.193" r="0.28"></circle><circle cx="39.237" cy="57.192" r="1.475"></circle><circle cx="35.535" cy="60.981" r="1.238"></circle><circle cx="31.698" cy="60.981" r="1.144"></circle><path d="M26.949,60.981c0-0.422,0.343-0.762,0.766-0.762c0.42,0,0.762,0.34,0.762,0.762c0,0.424-0.342,0.764-0.762,0.764   C27.292,61.745,26.949,61.405,26.949,60.981z"></path><path d="M23.208,60.983c0-0.369,0.299-0.67,0.668-0.67s0.669,0.299,0.669,0.67c-0.001,0.367-0.3,0.666-0.669,0.666   S23.208,61.351,23.208,60.983z"></path><circle cx="20.038" cy="60.983" r="0.573"></circle><circle cx="16.2" cy="60.981" r="0.479"></circle><circle cx="12.363" cy="60.982" r="0.382"></circle><circle cx="8.422" cy="60.982" r="0.317"></circle><circle cx="4.481" cy="60.982" r="0.28"></circle><circle cx="73.796" cy="65.074" r="0.28"></circle><circle cx="73.796" cy="68.862" r="0.279"></circle><circle cx="39.236" cy="64.923" r="1.238"></circle><circle cx="35.487" cy="64.923" r="1.144"></circle><circle cx="31.503" cy="64.923" r="0.764"></circle><circle cx="27.665" cy="64.923" r="0.669"></circle><circle cx="23.828" cy="64.923" r="0.574"></circle><circle cx="19.989" cy="64.923" r="0.478"></circle><circle cx="16.151" cy="64.923" r="0.383"></circle><circle cx="12.212" cy="64.923" r="0.316"></circle><circle cx="8.271" cy="64.923" r="0.279"></circle><circle cx="39.236" cy="68.711" r="1.239"></circle><circle cx="35.487" cy="68.712" r="1.144"></circle><circle cx="31.503" cy="68.712" r="0.764"></circle><circle cx="27.665" cy="68.712" r="0.669"></circle><circle cx="23.828" cy="68.712" r="0.574"></circle><circle cx="19.989" cy="68.712" r="0.478"></circle><circle cx="16.151" cy="68.712" r="0.383"></circle><circle cx="12.212" cy="68.713" r="0.317"></circle><circle cx="39.237" cy="60.982" r="1.476"></circle></g></g>
</svg>
</g><g opacity="1" transform="rotate(0 381.2388 274.6645)">
<svg width="383.5224" height="46.6708" x="381.2388" y="274.6645" version="1.1" preserveAspectRatio="none" viewBox="1.16 -31.48 261.32 31.8">
  <g transform="matrix(1 0 0 1 0 0)" class="aD6z1nYkhcolor"><path d="M26.84-22.80L12.20-22.80L10.72-15.40L23.72-15.40L22.64-10.20L9.72-10.20L7.68 0L1.16 0L6.76-28L27.92-28L26.84-22.80Z M35.60-18.96Q37-20.48 38.98-21.16Q40.96-21.84 43.64-21.84L43.64-21.84L42.52-16.08Q41.40-16.16 41.08-16.16L41.08-16.16Q38.24-16.16 36.54-14.76Q34.84-13.36 34.24-10.40L34.24-10.40L32.16 0L25.92 0L30.20-21.52L36.12-21.52L35.60-18.96Z M66.16-12.36Q66.16-10.88 65.80-9.08L65.80-9.08L49.32-9.08Q49.64-4.68 54.88-4.68L54.88-4.68Q56.52-4.68 58.02-5.20Q59.52-5.72 60.64-6.68L60.64-6.68L63.24-2.56Q61.44-1.12 59.12-0.40Q56.80 0.32 54.24 0.32L54.24 0.32Q50.92 0.32 48.42-0.86Q45.92-2.04 44.58-4.24Q43.24-6.44 43.24-9.32L43.24-9.32Q43.24-12.88 44.86-15.74Q46.48-18.60 49.36-20.22Q52.24-21.84 55.92-21.84L55.92-21.84Q59.04-21.84 61.34-20.68Q63.64-19.52 64.90-17.36Q66.16-15.20 66.16-12.36L66.16-12.36ZM55.64-17.16Q53.44-17.16 51.92-15.98Q50.40-14.80 49.76-12.72L49.76-12.72L60.44-12.72Q60.44-14.80 59.14-15.98Q57.84-17.16 55.64-17.16L55.64-17.16Z M75.76 0.32Q72.96 0.32 70.46-0.30Q67.96-0.92 66.56-1.92L66.56-1.92L68.96-6.44Q70.36-5.52 72.38-4.96Q74.40-4.40 76.44-4.40L76.44-4.40Q78.56-4.40 79.60-4.94Q80.64-5.48 80.64-6.48L80.64-6.48Q80.64-7.28 79.72-7.64Q78.80-8 76.76-8.40L76.76-8.40Q74.44-8.84 72.94-9.36Q71.44-9.88 70.34-11.06Q69.24-12.24 69.24-14.28L69.24-14.28Q69.24-17.84 72.22-19.84Q75.20-21.84 80.04-21.84L80.04-21.84Q82.28-21.84 84.40-21.36Q86.52-20.88 88.00-20.04L88.00-20.04L85.76-15.48Q83.12-17.12 79.40-17.12L79.40-17.12Q77.36-17.12 76.30-16.52Q75.24-15.92 75.24-15L75.24-15Q75.24-14.16 76.16-13.78Q77.08-13.40 79.24-12.96L79.24-12.96Q81.52-12.52 82.98-12.02Q84.44-11.52 85.52-10.36Q86.60-9.20 86.60-7.20L86.60-7.20Q86.60-3.60 83.58-1.64Q80.56 0.32 75.76 0.32L75.76 0.32Z M105.96-21.84Q109.56-21.84 111.68-19.92Q113.80-18 113.80-14.48L113.80-14.48Q113.80-13.20 113.52-11.92L113.52-11.92L111.12 0L104.88 0L107.20-11.52Q107.36-12.20 107.36-13L107.36-13Q107.36-14.68 106.44-15.56Q105.52-16.44 103.68-16.44L103.68-16.44Q101.28-16.44 99.70-15.06Q98.12-13.68 97.56-10.92L97.56-10.92L95.40 0L89.16 0L95.08-29.68L101.32-29.68L99.32-19.56Q102.08-21.84 105.96-21.84L105.96-21.84Z M154.32-28L161.04-28L143.32 0L136.96 0L130.44-28L137.12-28L141.64-8.04L154.32-28Z M167.00 0.32Q163.76 0.32 161.30-0.88Q158.84-2.08 157.50-4.26Q156.16-6.44 156.16-9.32L156.16-9.32Q156.16-12.88 157.84-15.72Q159.52-18.56 162.48-20.20Q165.44-21.84 169.16-21.84L169.16-21.84Q172.44-21.84 174.88-20.64Q177.32-19.44 178.66-17.26Q180.00-15.08 180.00-12.20L180.00-12.20Q180.00-8.64 178.34-5.80Q176.68-2.96 173.70-1.32Q170.72 0.32 167.00 0.32L167.00 0.32ZM167.40-4.84Q169.20-4.84 170.64-5.74Q172.08-6.64 172.88-8.24Q173.68-9.84 173.68-11.92L173.68-11.92Q173.68-14.12 172.40-15.40Q171.12-16.68 168.80-16.68L168.80-16.68Q166.96-16.68 165.52-15.78Q164.08-14.88 163.28-13.28Q162.48-11.68 162.48-9.60L162.48-9.60Q162.48-7.40 163.78-6.12Q165.08-4.84 167.40-4.84L167.40-4.84Z M181.92 0L186.20-21.52L192.40-21.52L188.12 0L181.92 0ZM190.36-24.52Q188.76-24.52 187.74-25.46Q186.72-26.40 186.72-27.76L186.72-27.76Q186.72-29.36 187.86-30.42Q189.00-31.48 190.84-31.48L190.84-31.48Q192.48-31.48 193.50-30.58Q194.52-29.68 194.52-28.36L194.52-28.36Q194.52-26.64 193.36-25.58Q192.20-24.52 190.36-24.52L190.36-24.52Z M205.28 0.32Q201.96 0.32 199.48-0.88Q197.00-2.08 195.66-4.26Q194.32-6.44 194.32-9.32L194.32-9.32Q194.32-12.88 196.00-15.72Q197.68-18.56 200.68-20.20Q203.68-21.84 207.44-21.84L207.44-21.84Q210.88-21.84 213.38-20.42Q215.88-19 217.12-16.40L217.12-16.40L211.84-13.76Q210.44-16.68 207.04-16.68L207.04-16.68Q205.20-16.68 203.74-15.78Q202.28-14.88 201.46-13.28Q200.64-11.68 200.64-9.64L200.64-9.64Q200.64-7.44 201.96-6.14Q203.28-4.84 205.64-4.84L205.64-4.84Q209.08-4.84 210.92-7.72L210.92-7.72L215.52-4.84Q213.96-2.40 211.26-1.04Q208.56 0.32 205.28 0.32L205.28 0.32Z M240.64-12.36Q240.64-10.88 240.28-9.08L240.28-9.08L223.80-9.08Q224.12-4.68 229.36-4.68L229.36-4.68Q231-4.68 232.50-5.20Q234-5.72 235.12-6.68L235.12-6.68L237.72-2.56Q235.92-1.12 233.60-0.40Q231.28 0.32 228.72 0.32L228.72 0.32Q225.40 0.32 222.90-0.86Q220.40-2.04 219.06-4.24Q217.72-6.44 217.72-9.32L217.72-9.32Q217.72-12.88 219.34-15.74Q220.96-18.60 223.84-20.22Q226.72-21.84 230.40-21.84L230.40-21.84Q233.52-21.84 235.82-20.68Q238.12-19.52 239.38-17.36Q240.64-15.20 240.64-12.36L240.64-12.36ZM230.12-17.16Q227.92-17.16 226.40-15.98Q224.88-14.80 224.24-12.72L224.24-12.72L234.92-12.72Q234.92-14.80 233.62-15.98Q232.32-17.16 230.12-17.16L230.12-17.16Z M250.24 0.32Q247.44 0.32 244.94-0.30Q242.44-0.92 241.04-1.92L241.04-1.92L243.44-6.44Q244.84-5.52 246.86-4.96Q248.88-4.40 250.92-4.40L250.92-4.40Q253.04-4.40 254.08-4.94Q255.12-5.48 255.12-6.48L255.12-6.48Q255.12-7.28 254.20-7.64Q253.28-8 251.24-8.40L251.24-8.40Q248.92-8.84 247.42-9.36Q245.92-9.88 244.82-11.06Q243.72-12.24 243.72-14.28L243.72-14.28Q243.72-17.84 246.70-19.84Q249.68-21.84 254.52-21.84L254.52-21.84Q256.76-21.84 258.88-21.36Q261-20.88 262.48-20.04L262.48-20.04L260.24-15.48Q257.60-17.12 253.88-17.12L253.88-17.12Q251.84-17.12 250.78-16.52Q249.72-15.92 249.72-15L249.72-15Q249.72-14.16 250.64-13.78Q251.56-13.40 253.72-12.96L253.72-12.96Q256-12.52 257.46-12.02Q258.92-11.52 260-10.36Q261.08-9.20 261.08-7.20L261.08-7.20Q261.08-3.60 258.06-1.64Q255.04 0.32 250.24 0.32L250.24 0.32Z"/></g>
</svg>
</g></svg>